<svg width="800" height="800" viewBox="0 0 800 800" fill="none" xmlns="http://www.w3.org/2000/svg">
<rect width="800" height="800"/>
<path d="M729 772.297V751H737.999C738.919 751 739.758 751.19 740.518 751.57C741.298 751.95 741.968 752.47 742.528 753.13C743.088 753.77 743.518 754.489 743.818 755.289C744.138 756.069 744.298 756.869 744.298 757.689C744.298 758.729 744.098 759.699 743.698 760.599C743.318 761.498 742.768 762.258 742.048 762.878C741.328 763.498 740.498 763.898 739.558 764.078L742.408 771.203L742.048 771.672L738.36 764.078L731.1 764.438V772.297H729ZM731.1 762.578H738.059C738.899 762.578 739.628 762.348 740.248 761.888C740.868 761.408 741.348 760.799 741.688 760.059C742.028 759.319 742.198 758.529 742.198 757.689C742.198 756.829 741.998 756.039 741.598 755.319C741.218 754.579 740.698 753.99 740.038 753.55C739.378 753.09 738.659 752.86 737.879 752.86H731.1V762.578Z" fill="#00071B" fill-opacity="0.19"/>
<path d="M742.633 751.15H744.613L747.612 758.709L750.642 751.15H752.651L748.932 760.239L753.011 769.867L760.72 751H763L753.971 772.297H752.112L747.642 761.768L743.143 772.297H741.313L732.314 751H734.564L742.303 769.867L746.352 760.239L742.633 751.15Z" fill="#00071B" fill-opacity="0.19"/>
<g clip-path="url(#clip0)">
<path d="M573.204 325.759C569.211 325.646 564.977 325.789 560.635 326.327C534.446 329.573 514.929 352.07 514.979 378.46C514.996 386.145 515.815 394.747 518.229 403.309C525.537 429.234 527.791 452.091 526.948 463.219L551.415 476.37C551.415 476.37 562.742 460.097 573.683 453.077C584.626 446.056 621.051 427.292 635.471 408.002C644.767 395.563 646.553 370.04 624.393 347.717C610.855 334.078 592.416 326.3 573.204 325.759Z" fill="#BA00E8"/>
<path d="M515.365 491.53L537.469 503.476L523.081 521.749L508.347 515.052L515.365 491.53Z" fill="#455A63"/>
<path d="M516.44 492.266C516.244 492.196 518.436 485.635 521.337 477.614C524.239 469.59 526.75 463.147 526.946 463.219C527.142 463.29 524.95 469.847 522.046 477.87C519.146 485.892 516.636 492.337 516.44 492.266Z" fill="#253138"/>
<path d="M536.077 502.579C535.897 502.472 539.358 496.275 543.809 488.739C548.263 481.199 552.015 475.175 552.193 475.28C552.374 475.386 548.913 481.583 544.461 489.121C540.01 496.658 536.256 502.684 536.077 502.579Z" fill="#253138"/>
<path d="M580.573 326.452C579.582 326.508 567.421 340.744 562.04 350.38C543.938 382.795 543.127 414.343 538.103 451.128C537.384 456.383 534.771 467.715 534.821 467.45C537.5 469.551 546.501 473.729 546.501 473.729C546.501 473.729 554.989 463.483 558.363 458.33C571.87 437.696 586.533 421.611 598.096 399.827C609.66 378.044 620.788 358.726 610.087 336.507C610.087 336.507 591.554 325.838 580.573 326.452Z" fill="black"/>
<path d="M635.565 411.262C635.547 411.268 635.439 411.028 635.249 410.561C635.044 410.099 634.813 409.389 634.402 408.509C633.606 406.738 632.302 404.194 630.133 401.323C627.955 398.477 624.921 395.262 620.744 392.561C616.634 389.801 611.341 387.612 605.343 386.861L605.197 386.843L605.109 386.725C602.297 382.934 599.073 379.02 595.234 375.39C591.402 371.769 586.915 368.437 581.753 366.107C576.601 363.809 571.055 362.789 565.82 363.069C560.584 363.333 555.674 364.998 551.874 367.715L551.655 367.875L551.451 367.694C546.91 363.698 541.465 361.632 536.56 361.076C531.622 360.508 527.239 361.417 523.898 362.69C520.532 363.972 518.159 365.603 516.627 366.784C515.861 367.383 515.291 367.869 514.92 368.211C514.544 368.547 514.342 368.714 514.328 368.702C514.315 368.688 514.493 368.495 514.844 368.132C515.193 367.763 515.741 367.247 516.491 366.618C517.993 365.375 520.357 363.669 523.751 362.313C527.118 360.967 531.573 359.983 536.622 360.518C541.635 361.04 547.217 363.107 551.901 367.185L551.479 367.164C555.375 364.344 560.421 362.617 565.779 362.335C571.137 362.035 576.8 363.07 582.063 365.419C587.322 367.791 591.873 371.183 595.74 374.855C599.614 378.536 602.847 382.493 605.656 386.322L605.422 386.188C611.542 386.984 616.909 389.251 621.054 392.092C625.269 394.87 628.304 398.169 630.458 401.079C632.603 404.018 633.861 406.617 634.6 408.424C634.982 409.324 635.181 410.05 635.351 410.526C635.51 411.006 635.583 411.256 635.565 411.262Z" fill="#253138"/>
<path d="M590.082 443.563C589.933 443.615 589.962 441.352 587.973 438.246C586.968 436.74 585.468 435.027 583.274 433.738C581.134 432.411 578.269 431.52 575.177 431.818L574.872 431.849L574.825 431.545C574.335 428.401 573.032 425.057 570.81 422.093C568.6 419.146 565.505 416.513 561.734 415.047C558.637 413.814 555.34 413.382 552.242 413.592C549.14 413.814 546.244 414.696 543.788 415.981L543.558 416.103L543.376 415.91C540.93 413.29 537.775 411.818 534.881 411.307C531.974 410.721 529.325 411.016 527.262 411.548C523.079 412.688 521.298 414.708 521.214 414.548C521.204 414.534 521.311 414.423 521.538 414.218C521.772 414.025 522.093 413.698 522.576 413.361C523.528 412.671 525.042 411.777 527.154 411.155C529.253 410.554 531.974 410.193 534.982 410.753C537.978 411.236 541.283 412.718 543.879 415.451L543.467 415.381C545.995 414.03 548.983 413.101 552.187 412.859C555.387 412.627 558.801 413.068 562.013 414.344C565.93 415.87 569.128 418.605 571.394 421.662C573.674 424.734 574.992 428.199 575.464 431.449L575.11 431.175C578.381 430.893 581.359 431.876 583.552 433.287C585.799 434.664 587.307 436.466 588.292 438.046C589.271 439.649 589.702 441.075 589.911 442.048C590.017 442.534 590.034 442.92 590.069 443.174C590.094 443.43 590.101 443.562 590.082 443.563Z" fill="#253138"/>
<path d="M533.196 509.232C533.14 509.275 532.956 508.929 532.385 508.694C531.816 508.455 530.895 508.423 529.801 508.773C529.24 508.922 528.604 509.129 527.844 509.132C527.084 509.144 526.242 508.776 525.66 508.166C524.487 506.946 524.041 505.18 522.932 503.959C522.382 503.363 521.663 503.055 520.895 503.102C520.127 503.131 519.358 503.385 518.592 503.562C517.829 503.745 517.021 503.86 516.274 503.685C515.537 503.527 514.931 503.163 514.464 502.758C513.526 501.936 513.116 500.968 513.009 500.302C512.895 499.627 513.003 499.255 513.041 499.259C513.105 499.261 513.102 499.63 513.293 500.231C513.474 500.826 513.927 501.665 514.801 502.345C515.236 502.678 515.779 502.968 516.397 503.071C517.008 503.19 517.695 503.081 518.425 502.886C519.158 502.704 519.942 502.415 520.866 502.362C521.795 502.279 522.83 502.708 523.481 503.441C524.766 504.903 525.169 506.64 526.162 507.683C526.642 508.197 527.241 508.484 527.861 508.504C528.484 508.53 529.1 508.375 529.675 508.253C530.83 507.954 531.91 508.062 532.515 508.431C533.134 508.797 533.228 509.229 533.196 509.232Z" fill="#253138"/>
<path d="M535.732 505.684C535.634 505.868 530.805 503.485 524.949 500.36C519.091 497.235 514.421 494.553 514.52 494.369C514.617 494.186 519.445 496.569 525.304 499.694C531.161 502.818 535.829 505.5 535.732 505.684Z" fill="#253138"/>
<path d="M531.342 511.258C531.354 511.316 531.033 511.41 530.498 511.658C530.229 511.778 529.919 511.962 529.5 512.132C529.079 512.307 528.533 512.372 527.977 512.331C526.873 512.254 525.513 511.909 524.335 510.927C523.749 510.449 523.255 509.752 522.947 509.016C522.62 508.296 522.366 507.554 521.875 507.028C520.864 505.947 519.229 505.832 517.873 505.879C516.478 505.93 515.102 505.972 514.028 505.512C512.968 505.069 512.325 504.318 512.085 503.73C511.837 503.134 511.927 502.767 511.962 502.772C512.027 502.764 512.05 503.109 512.348 503.596C512.635 504.076 513.26 504.681 514.219 505.014C515.171 505.354 516.423 505.278 517.846 505.184C519.232 505.111 521.106 505.136 522.433 506.517C523.062 507.212 523.318 508.039 523.622 508.715C523.908 509.408 524.289 509.961 524.791 510.404C525.786 511.284 527.014 511.667 528.025 511.799C529.05 511.988 529.787 511.557 530.395 511.383C530.989 511.211 531.333 511.215 531.342 511.258Z" fill="#253138"/>
<path d="M529.623 348.907C511.493 328.649 513.185 299.359 519.99 274.272C521.126 270.084 521.708 265.525 524.586 262.293C527.466 259.063 532.747 257.633 536.107 260.3C538.896 262.513 539.402 266.481 540.448 269.908C541.837 274.47 544.536 278.608 548.126 281.692C550.486 283.719 553.612 285.354 556.61 284.515C560.722 283.362 562.333 278.433 563.294 274.227C565.086 266.39 566.877 258.554 568.667 250.719C569.628 246.514 570.624 242.225 572.866 238.547C575.11 234.868 578.865 231.846 583.122 231.666C587.381 231.487 591.777 234.95 591.653 239.258C591.603 241.052 590.838 242.745 590.545 244.514C590.251 246.284 590.61 248.404 592.151 249.278C593.712 250.165 595.67 249.368 597.213 248.436C602.545 245.215 606.768 240.446 610.793 235.662C614.819 230.876 618.794 225.945 623.811 222.245C628.832 218.546 635.134 216.161 641.225 217.235C647.319 218.309 652.853 223.525 652.983 229.784C653.115 236.063 648.251 241.256 643.366 245.163C636.12 250.961 628.048 255.697 619.481 259.174C617.936 259.803 616.263 260.481 615.392 261.917C613.821 264.502 615.818 267.905 618.367 269.474C621.25 271.252 624.721 271.727 627.904 272.881C631.088 274.037 634.294 276.314 634.806 279.699C635.516 284.395 630.872 288.049 626.649 290.164C618.189 294.402 609.019 297.163 599.664 298.294C596.31 298.697 592.826 298.925 589.825 300.509C586.824 302.094 584.433 305.513 585.244 308.824C586.054 312.139 589.691 313.994 593.067 314.154C596.442 314.314 599.752 313.238 603.108 312.799C609.39 311.979 616.747 314.128 619.273 319.984C620.93 323.833 620.069 328.447 617.923 332.065C615.777 335.683 612.493 338.463 609.119 340.945C597.319 349.619 583.429 355.571 568.952 357.065C554.478 358.559 541.78 356.899 529.623 348.907Z" fill="#F5F5F5"/>
<path d="M533.297 351.337C536.568 341.536 533.136 346.458 539.883 334.587C546.605 322.7 555.052 310.282 564.336 297.596C566.67 294.434 568.975 291.308 571.247 288.229C573.521 285.16 575.773 282.116 578.166 279.276C582.92 273.573 587.929 268.451 592.835 263.739C597.738 259.022 602.567 254.726 607.109 250.743C611.662 246.767 615.973 243.139 620.044 240.003C628.173 233.695 635.319 229.394 640.342 226.642C642.856 225.257 644.836 224.247 646.191 223.581C646.841 223.267 647.35 223.018 647.734 222.832C648.083 222.669 648.265 222.589 648.271 222.602C648.279 222.615 648.108 222.717 647.769 222.905C647.395 223.109 646.897 223.379 646.262 223.725C644.935 224.437 642.975 225.491 640.489 226.914C635.519 229.746 628.446 234.107 620.385 240.452C616.346 243.608 612.064 247.249 607.537 251.244C603.018 255.247 598.216 259.555 593.337 264.273C588.459 268.987 583.48 274.101 578.758 279.78C576.385 282.609 574.154 285.627 571.877 288.706C569.608 291.784 567.306 294.908 564.973 298.071C555.698 310.746 547.251 323.122 540.513 334.954C533.756 346.767 537.155 341.773 533.827 351.519" fill="#DFDFDF"/>
<path d="M578.392 279.295C578.339 279.291 578.347 278.622 578.404 277.409C578.455 276.198 578.589 274.446 578.786 272.286C579.174 267.966 579.915 262.018 580.759 255.464C581.602 248.907 582.255 242.969 582.578 238.654C582.744 236.499 582.863 234.752 582.928 233.543C583.002 232.335 583.068 231.663 583.123 231.663C583.177 231.664 583.216 232.336 583.237 233.549C583.266 234.762 583.232 236.519 583.136 238.687C582.957 243.024 582.388 248.998 581.545 255.561C580.697 262.026 579.93 267.875 579.344 272.344C579.092 274.365 578.881 276.068 578.711 277.434C578.556 278.635 578.448 279.3 578.392 279.295Z" fill="#DFDFDF"/>
<path d="M634.744 281.901C634.732 281.954 633.943 281.865 632.529 281.653C631.114 281.452 629.07 281.147 626.533 280.853C621.464 280.223 614.43 279.6 606.641 279.253C598.849 278.917 591.782 278.913 586.674 279.06C584.116 279.114 582.05 279.215 580.622 279.275C579.191 279.341 578.4 279.352 578.393 279.297C578.389 279.241 579.174 279.125 580.601 278.964C582.025 278.808 584.094 278.622 586.655 278.493C591.774 278.202 598.864 278.115 606.682 278.45C614.494 278.799 621.544 279.516 626.609 280.29C629.145 280.659 631.184 281.048 632.586 281.346C633.985 281.653 634.753 281.844 634.744 281.901Z" fill="#DFDFDF"/>
<path d="M540.777 333.749C540.749 333.754 540.676 333.499 540.559 333.003C540.434 332.417 540.282 331.701 540.097 330.835C539.702 328.948 539.205 326.203 538.63 322.806C537.481 316.01 536.187 306.572 534.9 296.139C533.613 285.702 532.408 276.264 531.401 269.455C530.902 266.142 530.49 263.417 530.184 261.392C530.057 260.513 529.954 259.79 529.868 259.194C529.803 258.691 529.781 258.425 529.809 258.418C529.836 258.415 529.911 258.67 530.026 259.165C530.151 259.752 530.303 260.466 530.49 261.334C530.884 263.219 531.382 265.963 531.955 269.361C533.106 276.158 534.398 285.595 535.685 296.033C536.973 306.467 538.177 315.903 539.184 322.715C539.683 326.026 540.095 328.753 540.401 330.777C540.528 331.655 540.631 332.38 540.717 332.973C540.782 333.477 540.804 333.745 540.777 333.749Z" fill="#DFDFDF"/>
<path d="M617.938 327.5C617.94 327.529 617.669 327.57 617.157 327.626C616.552 327.683 615.81 327.751 614.911 327.835C612.841 328.007 610.044 328.238 606.643 328.517C599.664 329.095 590.033 330.005 579.392 331.024C568.748 332.046 559.099 332.865 552.106 333.299C548.609 333.518 545.779 333.665 543.818 333.728C542.915 333.75 542.17 333.768 541.564 333.786C541.047 333.79 540.777 333.778 540.775 333.751C540.775 333.723 541.042 333.68 541.555 333.623C542.159 333.568 542.901 333.499 543.802 333.416C545.874 333.244 548.667 333.014 552.067 332.734C559.047 332.155 568.68 331.246 579.324 330.226C589.965 329.207 599.611 328.384 606.607 327.952C610.104 327.733 612.934 327.586 614.893 327.523C615.798 327.501 616.543 327.48 617.149 327.465C617.664 327.461 617.936 327.473 617.938 327.5Z" fill="#DFDFDF"/>
<path d="M447.799 635.69L532.668 639.321L534.717 644.265L479.094 734.55L378.68 731.623L447.799 635.69Z" fill="#253138"/>
<path d="M374.869 722.821L475.889 728.592L528.651 646.71L491.602 649.722L397.829 682.744L374.869 722.821Z" fill="#DFDFDF"/>
<path d="M360.68 716.748L453.445 718.214C449.591 706.345 458.679 689.63 471.151 684.009C479.415 680.283 494.971 675.454 502.995 671.338C518.245 663.516 532.026 648.701 530.82 635.989L492.721 634.775L444.095 632.896C440.028 644.959 431.33 652.861 418.109 657.614C406.276 661.869 392.809 661.858 381.267 666.692C362.69 674.473 353.764 699.68 360.68 716.748Z" fill="#EBEBEB"/>
<path d="M360.682 716.75C360.682 716.75 360.593 716.552 360.449 716.151C360.299 715.73 360.087 715.134 359.814 714.362C359.49 713.584 359.301 712.561 359.023 711.358C358.69 710.165 358.579 708.736 358.383 707.134C358.149 703.924 358.181 699.913 359.121 695.341C360.064 690.788 361.857 685.658 365.07 680.618C365.903 679.382 366.702 678.075 367.74 676.889C368.242 676.289 368.713 675.646 369.259 675.056C369.823 674.485 370.394 673.904 370.972 673.319C371.528 672.709 372.168 672.179 372.826 671.653C373.483 671.128 374.118 670.562 374.813 670.057C376.268 669.145 377.678 668.076 379.33 667.362C385.757 664.121 393.438 662.755 401.433 661.305C405.443 660.577 409.571 659.812 413.716 658.672C417.841 657.502 422 655.939 425.944 653.752C427.926 652.68 429.842 651.428 431.652 650.008C433.477 648.604 435.186 647.009 436.717 645.226C439.834 641.701 442.182 637.415 443.765 632.785L443.85 632.54L444.11 632.548C457.024 633.042 470.578 633.557 484.625 634.092C498.673 634.644 513.223 635.025 528.116 635.524C529.031 635.554 529.944 635.585 530.832 635.612L531.168 635.623L531.198 635.956C531.454 638.894 530.917 641.817 529.97 644.528C529.538 645.91 528.877 647.185 528.272 648.48C527.555 649.716 526.887 650.978 526.053 652.128C522.89 656.853 518.838 660.806 514.56 664.278C510.247 667.727 505.566 670.59 500.692 672.846C495.799 675.046 490.844 676.839 485.99 678.634C481.14 680.428 476.343 682.13 471.787 684.112C469.553 685.154 467.407 686.339 465.546 687.9C464.561 688.602 463.738 689.493 462.838 690.284C462.044 691.179 461.16 691.992 460.456 692.948C457.46 696.623 455.209 700.788 453.969 705.14C452.655 709.461 452.508 714.034 453.739 718.116L453.864 718.53L453.44 718.522C425.342 718.024 402.161 717.612 385.977 717.324C377.912 717.16 371.595 717.034 367.269 716.947C365.134 716.894 363.494 716.852 362.361 716.824C361.253 716.791 360.682 716.75 360.682 716.75C360.682 716.75 361.253 716.727 362.363 716.73C363.495 716.738 365.135 716.747 367.272 716.76C371.6 716.809 377.917 716.881 385.983 716.972C402.168 717.195 425.351 717.516 453.45 717.905L453.152 718.309C451.863 714.078 452.017 709.373 453.347 704.959C454.605 700.512 456.888 696.272 459.933 692.524C460.652 691.548 461.547 690.715 462.357 689.8C463.274 688.993 464.113 688.086 465.121 687.362C467.015 685.769 469.226 684.539 471.505 683.475C476.1 681.469 480.894 679.762 485.743 677.961C490.591 676.163 495.539 674.363 500.388 672.179C505.199 669.946 509.833 667.108 514.097 663.696C518.324 660.259 522.326 656.35 525.431 651.709C526.251 650.578 526.901 649.341 527.603 648.131C528.193 646.866 528.842 645.618 529.259 644.279C530.178 641.645 530.689 638.83 530.446 636.027L530.809 636.368C529.92 636.34 529.006 636.308 528.093 636.281C513.198 635.779 498.649 635.395 484.6 634.831C470.55 634.281 456.996 633.75 444.082 633.244L444.426 633.007C442.81 637.711 440.41 642.081 437.224 645.668C435.66 647.485 433.917 649.105 432.058 650.529C430.214 651.97 428.267 653.237 426.256 654.319C422.252 656.527 418.052 658.098 413.88 659.269C409.695 660.409 405.55 661.165 401.536 661.882C393.535 663.305 385.9 664.649 379.557 667.819C377.928 668.514 376.538 669.56 375.099 670.452C374.412 670.946 373.782 671.505 373.132 672.019C372.481 672.534 371.848 673.056 371.296 673.655C370.723 674.231 370.156 674.799 369.595 675.362C369.055 675.942 368.586 676.576 368.085 677.17C367.055 678.335 366.257 679.627 365.425 680.847C362.221 685.819 360.41 690.898 359.441 695.411C358.478 699.94 358.411 703.924 358.608 707.118C358.786 708.712 358.877 710.132 359.192 711.323C359.449 712.523 359.619 713.547 359.925 714.327C360.174 715.107 360.367 715.704 360.504 716.131C360.631 716.535 360.682 716.75 360.682 716.75Z" fill="#253138"/>
<path d="M470.155 634.399C470.088 634.379 470.277 633.803 470.365 632.741C470.445 631.688 470.377 630.107 469.635 628.359C468.921 626.637 467.5 624.723 465.25 623.662C463.035 622.593 460.109 622.371 457.434 623.381C454.739 624.369 452.798 626.565 451.787 628.816C450.736 631.084 450.593 633.42 450.894 635.276C451.198 637.152 451.908 638.558 452.479 639.452C453.055 640.355 453.482 640.78 453.435 640.827C453.409 640.855 452.906 640.499 452.239 639.622C451.575 638.752 450.757 637.327 450.368 635.372C449.983 633.437 450.071 630.952 451.152 628.532C452.186 626.132 454.251 623.746 457.168 622.674C460.049 621.589 463.181 621.85 465.557 623.036C467.972 624.224 469.444 626.32 470.131 628.161C470.847 630.032 470.832 631.695 470.657 632.776C470.567 633.318 470.456 633.733 470.347 634.001C470.246 634.272 470.181 634.408 470.155 634.399Z" fill="#253138"/>
<path d="M484.694 634.399C484.626 634.379 484.814 633.803 484.904 632.741C484.983 631.688 484.914 630.107 484.174 628.359C483.46 626.637 482.037 624.723 479.787 623.662C477.573 622.593 474.648 622.371 471.972 623.381C469.277 624.369 467.336 626.565 466.325 628.816C465.273 631.084 465.13 633.42 465.432 635.276C465.736 637.152 466.446 638.558 467.018 639.452C467.592 640.355 468.021 640.78 467.974 640.827C467.948 640.855 467.445 640.499 466.776 639.622C466.112 638.752 465.294 637.327 464.907 635.372C464.522 633.437 464.61 630.952 465.689 628.532C466.723 626.132 468.79 623.746 471.706 622.674C474.586 621.589 477.72 621.85 480.094 623.036C482.511 624.224 483.983 626.32 484.67 628.161C485.384 630.032 485.369 631.695 485.194 632.776C485.104 633.318 484.993 633.733 484.885 634.001C484.784 634.272 484.718 634.408 484.694 634.399Z" fill="#253138"/>
<path d="M495.737 635.155C495.668 635.136 495.823 634.554 495.849 633.487C495.872 632.431 495.711 630.855 494.875 629.154C494.062 627.471 492.537 625.643 490.231 624.711C487.96 623.771 485.024 623.715 482.409 624.873C479.777 626.012 477.963 628.315 477.082 630.621C476.159 632.943 476.148 635.285 476.556 637.12C476.965 638.976 477.752 640.341 478.374 641.201C478.998 642.069 479.45 642.47 479.406 642.519C479.382 642.548 478.859 642.22 478.143 641.384C477.43 640.554 476.533 639.175 476.034 637.245C475.54 635.336 475.489 632.849 476.43 630.373C477.326 627.915 479.255 625.421 482.105 624.185C484.92 622.938 488.062 623.021 490.5 624.069C492.981 625.117 494.568 627.128 495.358 628.927C496.178 630.753 496.258 632.417 496.146 633.505C496.085 634.053 496 634.474 495.904 634.746C495.819 635.022 495.763 635.161 495.737 635.155Z" fill="#253138"/>
<path d="M507.574 635.829C507.505 635.816 507.629 635.225 507.602 634.157C507.567 633.101 507.324 631.537 506.398 629.883C505.498 628.246 503.875 626.5 501.525 625.691C499.207 624.873 496.273 624.971 493.724 626.269C491.154 627.546 489.464 629.939 488.705 632.288C487.909 634.658 488.023 636.997 488.526 638.809C489.032 640.639 489.891 641.958 490.558 642.785C491.228 643.619 491.701 643.996 491.657 644.047C491.637 644.079 491.098 643.778 490.336 642.978C489.582 642.189 488.612 640.861 488.014 638.961C487.418 637.079 487.234 634.6 488.042 632.075C488.807 629.576 490.601 626.98 493.382 625.595C496.127 624.202 499.271 624.118 501.76 625.036C504.293 625.953 505.985 627.877 506.869 629.632C507.784 631.412 507.951 633.068 507.895 634.159C507.863 634.711 507.799 635.133 507.722 635.413C507.65 635.691 507.6 635.834 507.574 635.829Z" fill="#253138"/>
<path d="M519.435 635.551C519.365 635.541 519.473 634.945 519.414 633.879C519.35 632.824 519.064 631.268 518.091 629.64C517.146 628.03 515.477 626.329 513.103 625.586C510.762 624.834 507.833 625.016 505.322 626.384C502.788 627.732 501.166 630.174 500.475 632.543C499.743 634.934 499.923 637.267 500.476 639.066C501.035 640.88 501.931 642.175 502.619 642.984C503.314 643.797 503.797 644.161 503.756 644.212C503.735 644.244 503.188 643.96 502.405 643.183C501.628 642.414 500.622 641.113 499.968 639.231C499.322 637.368 499.07 634.892 499.806 632.347C500.5 629.825 502.22 627.182 504.962 625.72C507.666 624.249 510.805 624.078 513.32 624.928C515.877 625.77 517.623 627.646 518.555 629.377C519.522 631.13 519.733 632.78 519.709 633.873C519.693 634.425 519.642 634.849 519.57 635.13C519.507 635.411 519.461 635.556 519.435 635.551Z" fill="#253138"/>
<path d="M529.43 636.884C529.361 636.869 529.493 636.279 529.476 635.212C529.455 634.156 529.23 632.589 528.322 630.923C527.442 629.277 525.842 627.512 523.501 626.676C521.192 625.831 518.257 625.895 515.693 627.161C513.109 628.407 511.39 630.782 510.604 633.121C509.778 635.48 509.865 637.821 510.347 639.639C510.833 641.475 511.675 642.806 512.332 643.638C512.993 644.48 513.46 644.863 513.417 644.913C513.396 644.943 512.861 644.638 512.109 643.829C511.362 643.03 510.409 641.691 509.833 639.783C509.259 637.897 509.107 635.415 509.946 632.9C510.737 630.409 512.561 627.834 515.36 626.483C518.12 625.123 521.265 625.075 523.744 626.024C526.266 626.969 527.935 628.912 528.797 630.678C529.692 632.47 529.839 634.127 529.771 635.217C529.733 635.769 529.663 636.191 529.582 636.469C529.506 636.748 529.456 636.889 529.43 636.884Z" fill="#253138"/>
<path d="M275.829 420.744C275.829 420.744 265.82 426.163 280.402 447.071C294.985 467.977 304.473 478.015 304.473 478.015C304.473 478.015 307.23 482.955 302.948 484.373C298.665 485.792 288.773 485.585 287.557 491.234C286.297 497.092 291.077 501.795 299.929 505.277C308.783 508.758 327.898 517.097 329.625 517.857C331.318 518.605 333.219 520.818 330.458 522.252C327.695 523.685 306.239 528.966 309.353 538.997C312.468 549.026 338.726 554.673 341.584 555.344C344.442 556.018 345.25 557.079 345.236 558.599C345.22 560.119 337.842 561.214 331.8 562.965C325.759 564.718 319.062 567.807 321.343 573.444C323.625 579.081 340.129 589.304 376.573 587.862L393.417 586.088L400.585 570.659C413.914 536.708 409.673 517.763 405.098 513.757C400.523 509.751 395.406 515.061 391.769 520.193C388.13 525.324 384.674 531.935 383.234 531.451C381.792 530.965 381.056 529.854 381.359 526.934C381.662 524.012 384.949 497.358 376.497 491.121C368.044 484.887 356.015 503.419 353.754 505.559C351.493 507.698 350.025 505.175 349.875 503.33C349.724 501.45 348.123 480.656 347.742 471.15C347.36 461.644 344.486 455.586 338.539 454.852C332.804 454.146 329.752 463.559 327.005 467.138C324.259 470.718 320.498 466.49 320.498 466.49C320.498 466.49 314.133 454.233 299.171 433.596C284.212 412.957 275.635 420.869 275.635 420.869" fill="#EBEBEB"/>
<path d="M394.835 589.911C383.906 574.712 364.938 547.369 348.532 523.979C332.131 500.598 317.26 479.441 306.411 464.188C300.987 456.579 296.594 450.417 293.545 446.137C292.036 444.019 290.861 442.366 290.049 441.224C289.664 440.673 289.365 440.246 289.149 439.939C288.949 439.648 288.86 439.492 288.86 439.492C288.86 439.492 288.98 439.626 289.193 439.908C289.419 440.206 289.731 440.624 290.134 441.162C290.964 442.29 292.167 443.923 293.711 446.016C296.81 450.233 301.252 456.369 306.712 463.971C317.64 479.172 332.561 500.294 348.962 523.677C365.368 547.068 384.287 574.441 395.136 589.696" fill="#DFDFDF"/>
<path d="M301.384 492.08C301.392 492.045 301.823 492.106 302.599 492.244C303.375 492.38 304.49 492.611 305.865 492.907C308.615 493.505 312.391 494.43 316.542 495.524C320.629 496.617 324.327 497.607 327.154 498.363C328.43 498.696 329.508 498.978 330.373 499.203C331.134 499.399 331.554 499.523 331.546 499.56C331.539 499.595 331.107 499.537 330.33 499.404C329.553 499.265 328.438 499.036 327.065 498.725C324.321 498.098 320.556 497.127 316.409 496.032C312.314 494.966 308.612 494.005 305.78 493.267C304.5 492.941 303.421 492.666 302.555 492.443C301.794 492.242 301.376 492.115 301.384 492.08Z" fill="#DFDFDF"/>
<path d="M332.544 498.328C332.401 498.298 333.963 490.427 336.03 480.751C338.098 471.07 339.889 463.25 340.032 463.281C340.173 463.311 338.613 471.181 336.546 480.861C334.477 490.536 332.686 498.359 332.544 498.328Z" fill="#DFDFDF"/>
<path d="M356.114 535.377C356.082 535.359 356.277 534.958 356.652 534.248C357.085 533.445 357.624 532.443 358.264 531.256C359.62 528.728 361.478 525.228 363.388 521.291C365.306 517.358 366.918 513.74 368.065 511.108C368.607 509.872 369.061 508.829 369.426 507.993C369.752 507.261 369.947 506.859 369.981 506.873C370.015 506.887 369.883 507.312 369.617 508.069C369.348 508.828 368.941 509.918 368.408 511.252C367.349 513.923 365.785 517.576 363.862 521.521C361.946 525.468 360.031 528.951 358.589 531.437C357.861 532.677 357.264 533.674 356.83 534.351C356.398 535.029 356.146 535.397 356.114 535.377Z" fill="#DFDFDF"/>
<path d="M326.687 535.93C326.686 535.894 327.096 535.845 327.835 535.79C328.687 535.741 329.736 535.68 330.972 535.608C333.621 535.477 337.284 535.331 341.331 535.204C345.377 535.076 349.042 534.992 351.694 534.954C352.933 534.948 353.982 534.943 354.837 534.94C355.579 534.947 355.99 534.97 355.991 535.005C355.991 535.041 355.584 535.089 354.842 535.143C353.989 535.194 352.94 535.255 351.706 535.327C349.055 535.457 345.394 535.602 341.348 535.73C337.3 535.859 333.637 535.945 330.984 535.981C329.747 535.986 328.695 535.992 327.842 535.995C327.099 535.988 326.689 535.965 326.687 535.93Z" fill="#DFDFDF"/>
<path d="M343.342 571.28C343.34 571.244 343.863 571.186 344.812 571.117C345.859 571.053 347.212 570.969 348.832 570.867C352.228 570.68 356.918 570.458 362.102 570.246C367.286 570.033 371.983 569.869 375.382 569.778C377.006 569.744 378.358 569.716 379.408 569.695C380.358 569.687 380.885 569.7 380.887 569.737C380.889 569.773 380.364 569.83 379.416 569.9C378.37 569.965 377.019 570.049 375.397 570.15C372.001 570.337 367.311 570.557 362.124 570.771C356.941 570.984 352.245 571.147 348.846 571.241C347.223 571.273 345.871 571.301 344.822 571.321C343.871 571.329 343.344 571.315 343.342 571.28Z" fill="#DFDFDF"/>
<path d="M379.98 569.521C379.948 569.504 380.179 568.989 380.625 568.074C381.116 567.077 381.757 565.774 382.53 564.205C384.136 560.938 386.337 556.417 388.623 551.358C390.92 546.3 392.876 541.668 394.27 538.305C394.942 536.689 395.497 535.348 395.924 534.322C396.319 533.383 396.553 532.87 396.587 532.881C396.62 532.895 396.451 533.433 396.116 534.397C395.779 535.357 395.271 536.742 394.617 538.443C393.309 541.844 391.403 546.508 389.103 551.573C386.811 556.642 384.554 561.146 382.861 564.374C382.011 565.985 381.31 567.282 380.806 568.168C380.303 569.056 380.011 569.538 379.98 569.521Z" fill="#DFDFDF"/>
<path d="M203.556 400.742L209.6 410.421C209.6 410.421 235.381 386.699 260.955 393.405C260.955 393.405 237.971 373.916 203.556 400.742Z" fill="#BA00E8"/>
<path d="M260.955 393.406C260.955 393.406 279.879 372.858 307.626 377.544L315.194 378.684L312.777 374.314C312.777 374.314 264.517 357.784 260.955 393.406Z" fill="#BA00E8"/>
<path d="M221.012 324.114C221.012 324.114 183.108 317.592 158.244 331.044L197.719 405.37C197.719 405.37 230.035 374.223 260.953 393.405L221.012 324.114Z" fill="#F5F5F5"/>
<path d="M221.012 324.116C221.018 324.108 221.087 324.21 221.214 324.418C221.357 324.652 221.541 324.959 221.781 325.355C222.292 326.218 223.023 327.452 223.965 329.048C225.882 332.328 228.659 337.087 232.183 343.117C239.243 355.297 249.279 372.604 261.245 393.239C261.336 393.399 261.281 393.603 261.123 393.695C261.012 393.759 260.879 393.752 260.777 393.689C256.49 391.058 251.566 389.061 246.247 388.112C243.583 387.673 240.836 387.488 238.053 387.544C235.271 387.656 232.461 388.007 229.659 388.599C218.463 391.084 207.587 397.164 198.305 405.342L197.983 405.644C197.832 405.788 197.593 405.784 197.447 405.635C197.425 405.611 197.402 405.577 197.387 405.548C182.722 377.886 169.128 352.243 157.967 331.19C157.886 331.044 157.94 330.859 158.087 330.776L158.095 330.772C166.788 326.277 175.608 324.329 183.36 323.293C191.15 322.289 197.989 322.255 203.579 322.415C209.176 322.6 213.54 323.049 216.499 323.415C217.98 323.594 219.109 323.768 219.867 323.894C220.226 323.958 220.51 324.008 220.728 324.046C220.924 324.087 221.017 324.11 221.012 324.116C221.007 324.122 220.906 324.114 220.716 324.091C220.497 324.066 220.214 324.031 219.852 323.987C219.091 323.892 217.958 323.749 216.478 323.599C213.515 323.293 209.153 322.903 203.57 322.771C197.992 322.664 191.173 322.748 183.425 323.792C175.716 324.864 166.962 326.846 158.391 331.318L158.517 330.9C169.711 351.935 183.346 377.554 198.054 405.196L197.458 405.1L197.797 404.785C202.476 400.595 207.59 397.082 212.909 394.182C218.24 391.307 223.827 389.108 229.507 387.883C232.35 387.287 235.204 386.933 238.033 386.823C240.865 386.773 243.654 386.965 246.367 387.418C251.778 388.392 256.787 390.438 261.131 393.121L260.664 393.572C248.831 372.923 238.902 355.601 231.918 343.414C228.455 337.328 225.724 332.526 223.839 329.215C222.924 327.586 222.214 326.324 221.719 325.443C221.491 325.028 221.318 324.707 221.182 324.462C221.064 324.24 221.007 324.123 221.012 324.116Z" fill="#253138"/>
<path d="M280.593 308.864C280.593 308.864 251.92 290.591 221.497 324.117L261.441 393.408C261.441 393.408 269.593 365.282 317.281 375.063L280.593 308.864Z" fill="#F5F5F5"/>
<path d="M280.594 308.864C280.602 308.858 280.666 308.958 280.786 309.156C280.918 309.381 281.09 309.674 281.312 310.051C281.783 310.878 282.456 312.059 283.323 313.581C285.085 316.715 287.637 321.257 290.873 327.016C297.354 338.642 306.571 355.171 317.573 374.904C317.663 375.065 317.605 375.267 317.444 375.357C317.375 375.395 317.299 375.405 317.229 375.395L317.216 375.39C314.892 375.008 312.525 374.619 310.114 374.224C308.915 373.982 307.684 373.916 306.447 373.817C305.208 373.72 303.961 373.618 302.703 373.517C301.447 373.37 300.177 373.402 298.895 373.428C297.615 373.443 296.326 373.46 295.028 373.476C293.73 373.505 292.438 373.741 291.13 373.864C289.825 374.03 288.495 374.096 287.209 374.454C285.911 374.747 284.606 375.045 283.291 375.341C282.02 375.785 280.743 376.232 279.459 376.682C278.172 377.127 276.989 377.836 275.74 378.404C275.106 378.676 274.525 379.046 273.951 379.427L272.203 380.547C271.05 381.316 270.018 382.265 268.928 383.14C267.971 384.157 266.892 385.072 266.056 386.214C264.264 388.372 262.733 390.862 261.806 393.511L261.798 393.533C261.73 393.729 261.514 393.832 261.316 393.762C261.23 393.732 261.16 393.669 261.116 393.595C260.608 392.713 260.056 391.757 259.504 390.801C245.382 366.256 232.22 343.386 221.222 324.274C221.153 324.152 221.173 324 221.264 323.902C228.018 316.536 235.472 310.915 242.901 307.633C250.315 304.269 257.547 303.433 263.314 303.804C269.117 304.164 273.514 305.575 276.372 306.729C277.807 307.308 278.862 307.853 279.564 308.232C279.892 308.423 280.148 308.572 280.347 308.688C280.518 308.802 280.601 308.86 280.594 308.864C280.588 308.87 280.496 308.825 280.319 308.73C280.117 308.626 279.854 308.492 279.518 308.319C278.804 307.97 277.738 307.458 276.299 306.909C273.434 305.818 269.049 304.474 263.292 304.172C257.573 303.859 250.429 304.737 243.113 308.107C235.779 311.397 228.417 316.995 221.734 324.33L221.775 323.958C232.803 343.054 245.998 365.902 260.16 390.426C260.711 391.382 261.26 392.336 261.769 393.218L261.079 393.302C262.072 390.465 263.627 387.971 265.472 385.74C266.332 384.569 267.437 383.625 268.422 382.584C269.536 381.689 270.596 380.722 271.774 379.935L273.561 378.792C274.151 378.403 274.744 378.026 275.39 377.746C276.665 377.167 277.875 376.445 279.185 375.993C280.494 375.537 281.795 375.086 283.089 374.636C284.423 374.335 285.75 374.036 287.068 373.739C288.375 373.381 289.722 373.309 291.043 373.143C292.367 373.02 293.677 372.789 294.99 372.76C296.302 372.747 297.603 372.732 298.897 372.718C300.192 372.695 301.475 372.666 302.739 372.817C304.007 372.92 305.264 373.025 306.512 373.127C307.758 373.229 309 373.302 310.207 373.546C312.631 373.951 315.013 374.349 317.35 374.739L316.991 375.227C306.103 355.463 296.985 338.908 290.57 327.262C287.399 321.457 284.896 316.879 283.169 313.719C282.335 312.169 281.687 310.968 281.234 310.126C281.028 309.732 280.87 309.428 280.748 309.193C280.639 308.983 280.588 308.87 280.594 308.864Z" fill="#253138"/>
<path d="M168.919 295.316L211.667 377.626C211.667 377.626 246.41 376.106 261.114 393.037L221.497 324.114C221.497 324.114 198.265 295.316 168.919 295.316Z" fill="#F5F5F5"/>
<path d="M168.92 295.316C168.92 295.316 169.271 295.322 170.004 295.35C170.782 295.382 171.881 295.429 173.301 295.487C173.662 295.508 174.053 295.509 174.456 295.553C174.851 295.619 175.268 295.689 175.704 295.76C176.579 295.906 177.532 296.063 178.561 296.234C179.604 296.358 180.676 296.71 181.836 297.017C182.983 297.367 184.248 297.601 185.502 298.101C195.719 301.501 209.42 309.743 221.74 323.921L221.763 323.953L221.767 323.961C233.046 343.544 246.701 367.255 261.444 392.85C261.547 393.031 261.485 393.261 261.304 393.364C261.155 393.451 260.97 393.422 260.851 393.305L260.831 393.285C260.302 392.758 259.728 392.189 259.153 391.619C255.975 388.536 252.211 386.104 248.211 384.387C244.233 382.628 240.126 381.269 235.982 380.379C227.721 378.523 219.475 377.825 211.685 377.98H211.675C211.536 377.983 211.415 377.906 211.355 377.79C198.894 353.624 188.248 332.977 180.7 318.341C176.978 311.089 174.02 305.329 171.978 301.349C170.984 299.405 170.217 297.899 169.679 296.847C169.434 296.361 169.242 295.981 169.099 295.696C168.972 295.439 168.911 295.312 168.92 295.316C168.929 295.321 169.007 295.461 169.15 295.728C169.306 296.019 169.514 296.408 169.78 296.908C170.343 297.97 171.145 299.492 172.182 301.456C174.275 305.438 177.304 311.203 181.117 318.461C188.715 332.988 199.436 353.478 211.982 377.463L211.653 377.273C219.535 377.102 227.8 377.795 236.148 379.657C240.328 380.55 244.484 381.918 248.521 383.7C252.578 385.442 256.42 387.916 259.682 391.078C260.272 391.665 260.859 392.25 261.401 392.791L260.789 393.226C246.09 367.605 232.476 343.873 221.229 324.269L221.258 324.309C215.241 317.235 208.679 311.696 202.546 307.379C196.356 303.125 190.468 300.164 185.386 298.435C184.143 297.926 182.889 297.681 181.752 297.321C180.604 297.002 179.54 296.64 178.507 296.502C177.485 296.318 176.54 296.143 175.67 295.987C175.237 295.908 174.824 295.833 174.43 295.762C174.036 295.712 173.666 295.701 173.314 295.67C170.705 295.459 169.492 295.362 168.92 295.316Z" fill="#253138"/>
<path d="M252.855 478.104C252.846 494.848 239.265 508.412 222.522 508.403C205.779 508.395 192.213 494.817 192.222 478.073C192.231 461.33 205.812 447.765 222.555 447.773C239.298 447.782 252.864 461.361 252.855 478.104Z" fill="#BA00E8"/>
<path d="M193.124 485.446C193.26 485.972 167.165 510.984 173.885 516.319C180.604 521.654 208.894 507.992 233.013 488.531C257.132 469.07 279.169 445.435 273.144 439.172C267.121 432.911 236.982 451.428 236.982 451.428L240.581 453.725C240.581 453.725 258.803 442.047 264.563 446.587C270.323 451.127 253.888 468.838 230.696 485.748C207.506 502.659 185.099 514.528 181.624 509.89C178.15 505.251 194.565 489.794 194.565 489.794L193.124 485.446Z" fill="#BA00E8"/>
<path d="M193.124 485.445C193.26 485.971 167.165 510.984 173.885 516.319C180.604 521.654 208.894 507.992 233.013 488.531C257.132 469.07 279.169 445.435 273.144 439.172C267.121 432.911 236.982 451.428 236.982 451.428L240.581 453.725C240.581 453.725 258.803 442.047 264.563 446.587C270.323 451.127 253.888 468.838 230.696 485.748C207.506 502.659 185.099 514.528 181.624 509.89C178.15 505.251 194.565 489.794 194.565 489.794L193.124 485.445Z" fill="#BA00E8"/>
<path d="M531.451 193.594C531.779 179.786 543.237 168.859 557.044 169.186C570.852 169.514 581.779 180.972 581.453 194.78C581.124 208.587 569.666 219.515 555.859 219.188C542.051 218.859 531.122 207.402 531.451 193.594Z" fill="#BA00E8"/>
<path d="M564.599 184.608C564.652 182.357 566.521 180.574 568.774 180.627C571.027 180.682 572.807 182.55 572.753 184.801C572.7 187.054 570.832 188.837 568.58 188.783C566.328 188.729 564.545 186.861 564.599 184.608Z" fill="black"/>
<path d="M572.757 194.131C572.787 192.82 573.874 191.784 575.184 191.816C576.494 191.846 577.531 192.933 577.499 194.243C577.468 195.553 576.382 196.59 575.071 196.56C573.761 196.528 572.725 195.441 572.757 194.131Z" fill="black"/>
<path d="M569.574 201.416C570.056 201.428 570.439 201.828 570.428 202.311C570.416 202.795 570.015 203.178 569.533 203.166C569.048 203.155 568.666 202.754 568.679 202.27C568.689 201.787 569.09 201.405 569.574 201.416Z" fill="black"/>
<path d="M426.771 154.68C425.452 134.257 407.826 118.771 387.403 120.091C366.981 121.41 351.495 139.036 352.814 159.459C353.77 174.245 363.276 186.437 376.199 191.543C376.481 195.925 376.801 200.873 376.801 200.873L409.211 198.778C409.211 198.778 409.069 193.529 408.838 188.851C420.349 181.939 427.695 169.001 426.771 154.68Z" fill="#BA00E8"/>
<path d="M397.482 199.383C397.482 199.383 397.476 199.226 397.488 198.924C397.505 198.603 397.525 198.156 397.554 197.58C397.621 196.401 397.716 194.659 397.9 192.42C398.086 190.181 398.347 187.442 398.852 184.286C399.372 181.14 400.126 177.556 401.544 173.779C402.254 171.892 403.09 169.954 404.227 168.05C404.813 167.115 405.563 166.194 406.608 165.615C407.65 165.031 408.996 164.944 410.126 165.502C410.687 165.78 411.178 166.276 411.39 166.891C411.628 167.495 411.609 168.2 411.36 168.798C410.864 170.006 409.826 170.891 408.662 171.444C406.276 172.456 403.448 172.424 400.939 171.397C398.423 170.374 396.327 168.221 395.319 165.565C394.835 164.244 394.521 162.781 394.825 161.313C395.082 159.857 396.394 158.483 398.02 158.527C398.825 158.533 399.588 159.035 399.986 159.708C400.401 160.378 400.55 161.195 400.43 161.97C400.174 163.535 399.136 164.762 398.068 165.812C395.864 167.889 392.758 169.164 389.61 168.869C386.485 168.574 383.576 166.709 382.117 164.002C381.357 162.672 381.089 161.017 381.576 159.538C381.822 158.808 382.343 158.107 383.093 157.797C383.828 157.458 384.687 157.542 385.382 157.86C386.085 158.174 386.675 158.729 387.048 159.383C387.435 160.032 387.639 160.757 387.75 161.476C387.949 162.918 387.835 164.371 387.461 165.738C386.733 168.477 384.965 170.863 382.649 172.277C380.346 173.704 377.596 174.219 375.065 173.823C373.816 173.63 372.524 173.219 371.623 172.272C370.741 171.348 370.41 169.816 371.186 168.725C371.574 168.197 372.187 167.89 372.796 167.803C373.409 167.72 374.027 167.805 374.584 168.033C375.716 168.504 376.452 169.479 377.009 170.424C378.069 172.37 378.941 174.27 379.817 176.081C383.255 183.344 385.749 189.349 387.431 193.514C388.27 195.597 388.896 197.225 389.317 198.33C389.518 198.869 389.673 199.289 389.785 199.59C389.888 199.876 389.929 200.024 389.929 200.024C389.929 200.024 389.858 199.886 389.741 199.606C389.619 199.31 389.451 198.897 389.23 198.363C388.774 197.252 388.115 195.644 387.266 193.581C385.538 189.439 382.998 183.456 379.527 176.221C378.647 174.425 377.753 172.502 376.707 170.602C376.166 169.687 375.451 168.779 374.447 168.372C373.471 167.968 372.145 168.056 371.492 168.947C370.85 169.831 371.119 171.198 371.905 172.005C372.709 172.85 373.919 173.247 375.128 173.427C377.563 173.803 380.217 173.298 382.428 171.92C384.649 170.559 386.344 168.263 387.041 165.625C387.399 164.312 387.504 162.909 387.314 161.541C387.128 160.197 386.47 158.819 385.199 158.267C384.59 157.99 383.874 157.928 383.272 158.208C382.658 158.463 382.223 159.036 382.001 159.685C381.568 161.012 381.796 162.537 382.513 163.786C383.892 166.349 386.681 168.139 389.654 168.416C392.647 168.699 395.637 167.478 397.758 165.482C398.79 164.473 399.767 163.286 399.984 161.903C400.091 161.226 399.958 160.515 399.604 159.945C399.261 159.372 398.657 158.98 398.004 158.972C397.35 158.949 396.692 159.237 396.204 159.684C395.707 160.127 395.4 160.749 395.256 161.409C394.974 162.737 395.26 164.145 395.727 165.409C396.687 167.957 398.695 170.026 401.1 171.009C403.494 172.003 406.245 172.031 408.493 171.081C409.585 170.571 410.56 169.723 410.997 168.658C411.465 167.595 410.966 166.309 409.954 165.84C408.964 165.341 407.721 165.406 406.783 165.935C405.818 166.463 405.099 167.331 404.523 168.237C403.404 170.093 402.555 172.029 401.843 173.893C400.419 177.633 399.645 181.195 399.103 184.329C398.577 187.469 398.29 190.201 398.078 192.435C397.891 194.657 397.745 196.39 397.645 197.586C397.598 198.161 397.561 198.608 397.536 198.927C397.508 199.23 397.482 199.383 397.482 199.383Z" fill="#253138"/>
<path d="M407.105 204.939L379.277 206.737C378.125 206.811 377.126 205.937 377.052 204.784C376.979 203.63 377.855 202.636 379.008 202.561L406.835 200.763C407.989 200.689 408.984 201.564 409.059 202.718C409.133 203.87 408.259 204.864 407.105 204.939Z" fill="#253138"/>
<path d="M407.223 206.764L379.394 208.562C378.242 208.637 377.367 209.634 377.441 210.788C377.517 211.94 378.511 212.815 379.665 212.741L382.72 212.543L387.271 219.993C387.792 220.845 388.742 221.339 389.738 221.276L399.682 220.634C400.688 220.569 401.574 219.943 401.976 219.018L405.417 211.076L407.493 210.943C408.647 210.868 409.521 209.871 409.446 208.717C409.372 207.564 408.376 206.69 407.223 206.764Z" fill="#253138"/>
<path d="M401.5 219.71C401.471 219.781 400.75 219.506 399.55 219.245C398.352 218.98 396.654 218.784 394.792 218.955C392.928 219.134 391.297 219.642 390.17 220.123C389.037 220.604 388.381 221.008 388.34 220.944C388.311 220.905 388.91 220.4 390.034 219.832C391.153 219.262 392.827 218.685 394.749 218.502C396.672 218.325 398.423 218.581 399.629 218.932C400.839 219.281 401.521 219.666 401.5 219.71Z" fill="#455A63"/>
<path d="M405.481 211.164C405.49 211.291 400.465 211.716 394.26 212.118C388.054 212.519 383.018 212.744 383.011 212.619C383.001 212.493 388.025 212.064 394.231 211.665C400.436 211.262 405.473 211.038 405.481 211.164Z" fill="#455A63"/>
<path d="M403.955 214.578C403.961 214.639 402.921 214.82 401.232 215.036C399.543 215.252 397.203 215.501 394.613 215.705C392.019 215.91 389.67 216.029 387.966 216.08C386.263 216.13 385.21 216.118 385.207 216.056C385.204 215.992 386.253 215.892 387.949 215.758C389.782 215.618 392.057 215.443 394.576 215.25C397.092 215.047 399.366 214.864 401.2 214.715C402.895 214.581 403.947 214.515 403.955 214.578Z" fill="#455A63"/>
<path d="M295.954 155.976H293.729C289.184 155.976 285.501 152.293 285.501 147.749V109.239H304.182V147.749C304.182 152.293 300.497 155.976 295.954 155.976Z" fill="#BA00E8"/>
<path d="M285.501 109.238L294.841 92.1074L304.182 109.238H285.501Z" fill="#FFBD9D"/>
<path d="M291.142 98.8927C291.142 98.8927 293.978 103.159 298.541 98.8927L294.841 92.1089L291.142 98.8927Z" fill="#BA00E8"/>
<path d="M304.44 145.873C304.44 146.081 300.187 146.251 294.945 146.251C289.699 146.251 285.448 146.081 285.448 145.873C285.448 145.665 289.699 145.494 294.945 145.494C300.187 145.494 304.44 145.665 304.44 145.873Z" fill="#253138"/>
<path d="M304.249 143.009C304.249 143.217 300.081 143.389 294.943 143.389C289.803 143.389 285.638 143.217 285.638 143.009C285.638 142.801 289.803 142.632 294.943 142.632C300.081 142.632 304.249 142.801 304.249 143.009Z" fill="#253138"/>
<path d="M290.983 109.513C291.193 109.513 291.36 116.97 291.36 126.166C291.36 135.365 291.193 142.819 290.983 142.819C290.775 142.819 290.605 135.365 290.605 126.166C290.605 116.97 290.775 109.513 290.983 109.513Z" fill="#F9F9F9"/>
<path d="M298.543 109.513C298.751 109.513 298.92 116.97 298.92 126.166C298.92 135.365 298.751 142.819 298.543 142.819C298.333 142.819 298.164 135.365 298.164 126.166C298.164 116.97 298.333 109.513 298.543 109.513Z" fill="#F9F9F9"/>
<path d="M364.403 369.358L402.625 363.691L384.35 337.803L374.55 338.382C367.953 338.769 362.141 342.846 359.527 348.914C358.137 352.136 357.751 355.702 358.417 359.148L364.403 369.358Z" fill="#E8505B"/>
<path d="M364.403 369.359L402.625 363.691L384.35 337.803L374.55 338.382C367.953 338.769 362.141 342.846 359.527 348.914C358.137 352.136 357.751 355.702 358.417 359.148L364.403 369.359Z" fill="#BA00E8"/>
<path d="M528.589 411.713C528.982 412.807 529.412 414.102 529.847 415.653C530.221 416.983 530.352 418.369 530.261 419.746C530.147 421.418 529.905 423.634 529.397 424.804C528.768 426.255 530.229 427.712 531.469 426.989C532.706 426.264 534.536 422.312 534.424 417.224C534.311 412.137 539.501 418.235 541.431 420.422C543.363 422.611 549.654 429.1 550.797 429.039C552.474 428.951 552.687 427.138 550.708 424.998C548.703 422.832 543.244 416.02 544.45 415.057C545.637 414.107 555.315 425.381 555.315 425.381C555.315 425.381 556.993 428.126 558.423 427.057C560.999 425.131 549.831 413.905 548.741 412.863C547.982 412.138 549.254 411.045 550.027 411.866C550.82 412.71 559.417 423.335 562.06 421.398C564.088 419.915 552.959 412.079 552.399 408.886C551.84 405.689 560.236 415.683 562.117 414.186C562.816 413.628 563.261 413.114 557.61 408.071C554.868 405.622 544.442 398.326 544.442 398.326L513.069 308.502L488.844 322.376L528.589 411.713Z" fill="#FFBD9D"/>
<path d="M341.835 241.839L306.778 200.003H306.776C306.322 198.565 305.773 197.162 305.06 195.832C303.308 192.567 300.409 189.724 296.79 188.932C294.566 188.446 292.022 188.68 290.277 187.218C289.497 186.564 288.979 185.634 288.159 185.028C287.343 184.421 285.983 184.303 285.46 185.177C285.088 185.798 285.323 186.595 285.606 187.262C286.905 190.351 289.032 193.079 291.69 195.119C288.404 196.117 283.709 197.628 283.709 197.628C283.709 197.628 276.299 189.588 272.503 189.613C268.707 189.638 275.569 196.792 275.569 196.792C275.569 196.792 269.491 191.174 267.606 192.758C265.721 194.341 270.552 198.511 270.552 198.511C269.018 197.692 267.337 196.844 265.621 197.13C263.903 197.414 262.427 199.442 263.352 200.916C263.706 201.48 264.312 201.828 264.894 202.153C268.006 203.886 271.116 205.619 274.226 207.353C275.787 208.224 277.427 209.116 279.214 209.171C283.946 209.317 287.547 206.387 292.28 206.513C292.28 206.513 318.716 262.161 321.39 265.031C324.065 267.901 382.14 271.809 382.14 271.809L415.753 242.848L341.835 241.839Z" fill="#FFBD9D"/>
<path d="M447.13 544.964L482.931 560.557L463.759 605.197C459.608 603.104 460.964 576.333 460.964 576.333L437.616 567.286L447.13 544.964Z" fill="#BA00E8"/>
<path d="M460.427 576.961C460.649 577.048 461.214 575.999 462.376 575.228C463.516 574.426 464.701 574.278 464.7 574.041C464.744 573.824 463.301 573.587 461.912 574.546C460.514 575.493 460.207 576.923 460.427 576.961Z" fill="#253138"/>
<path d="M460.353 582.473C460.543 582.614 461.319 581.828 462.558 581.485C463.789 581.105 464.865 581.345 464.949 581.124C465.071 580.933 463.861 580.234 462.325 580.693C460.789 581.137 460.147 582.378 460.353 582.473Z" fill="#253138"/>
<path d="M464.814 587.539C464.946 587.361 463.986 586.59 462.551 586.636C461.116 586.674 460.204 587.499 460.347 587.669C460.473 587.87 461.397 587.482 462.575 587.461C463.753 587.414 464.7 587.747 464.814 587.539Z" fill="#253138"/>
<path d="M455.335 574.309C455.572 574.303 455.7 573.173 456.314 571.977C456.901 570.769 457.728 569.987 457.589 569.793C457.486 569.6 456.276 570.189 455.574 571.609C454.861 573.021 455.116 574.341 455.335 574.309Z" fill="#253138"/>
<path d="M450.494 570.968C450.584 571.009 451.088 570.206 451.442 568.727C451.619 567.992 451.74 567.089 451.728 566.081C451.722 565.578 451.681 565.047 451.599 564.505C451.555 564.242 451.527 563.941 451.363 563.603C451.239 563.266 450.72 562.88 450.246 563.006C449.805 563.086 449.483 563.427 449.337 563.746C449.187 564.07 449.137 564.366 449.094 564.635C449.001 565.184 448.965 565.719 448.974 566.228C448.995 567.248 449.188 568.153 449.442 568.872C449.956 570.32 450.619 571.021 450.693 570.966C450.805 570.898 450.34 570.101 450.001 568.707C449.833 568.013 449.714 567.168 449.734 566.231C449.748 565.765 449.795 565.274 449.89 564.777C449.968 564.251 450.138 563.848 450.4 563.818C450.5 563.808 450.533 563.815 450.629 563.971C450.714 564.129 450.757 564.375 450.801 564.635C450.889 565.14 450.942 565.632 450.968 566.105C451.021 567.049 450.965 567.906 450.868 568.622C450.676 570.053 450.374 570.922 450.494 570.968Z" fill="#253138"/>
<path d="M450.929 570.82C450.995 570.758 450.4 569.99 449.022 569.303C448.338 568.966 447.458 568.674 446.445 568.558C445.937 568.502 445.397 568.49 444.841 568.543C444.288 568.615 443.56 568.682 443.101 569.486C442.894 569.92 443.082 570.433 443.323 570.685C443.561 570.963 443.807 571.105 444.045 571.269C444.531 571.574 445.046 571.782 445.549 571.916C446.56 572.182 447.518 572.134 448.269 571.953C449.801 571.577 450.451 570.781 450.386 570.729C450.307 570.611 449.561 571.19 448.162 571.38C447.474 571.474 446.624 571.456 445.758 571.184C445.324 571.05 444.888 570.855 444.484 570.589C444.038 570.316 443.733 569.971 443.858 569.814C443.949 569.591 444.469 569.369 444.926 569.347C445.425 569.291 445.911 569.285 446.375 569.315C447.3 569.382 448.126 569.591 448.791 569.84C450.129 570.343 450.843 570.925 450.929 570.82Z" fill="#253138"/>
<path d="M419.559 606.291L434.364 637.313L439.001 665.224C439.336 667.238 441.305 668.546 443.289 668.074C444.402 667.813 445.311 667.039 445.739 665.981C448.462 659.24 458.351 634.399 457.139 632.189C455.738 629.629 443.69 598.428 443.69 598.428L419.559 606.291Z" fill="#BA00E8"/>
<path d="M444.297 651.157C444.159 651.322 442.712 649.999 440.451 649.953C438.19 649.841 436.659 651.063 436.533 650.885C436.47 650.821 436.756 650.398 437.443 649.965C438.121 649.532 439.231 649.158 440.477 649.199C441.727 649.245 442.804 649.695 443.45 650.175C444.105 650.655 444.364 651.096 444.297 651.157Z" fill="#253138"/>
<path d="M443.952 656.358C443.864 656.562 442.4 655.995 440.568 656.259C438.732 656.483 437.468 657.413 437.331 657.24C437.167 657.121 438.378 655.778 440.47 655.51C442.558 655.221 444.078 656.2 443.952 656.358Z" fill="#253138"/>
<path d="M446.036 643.905C445.955 644.121 443.707 643.238 440.825 643.399C437.94 643.516 435.788 644.612 435.686 644.405C435.56 644.261 437.696 642.779 440.789 642.645C443.88 642.481 446.147 643.748 446.036 643.905Z" fill="#253138"/>
<path d="M442.322 634.099C442.322 634.324 440.264 634.381 437.975 635.312C435.671 636.212 434.14 637.588 433.987 637.424C433.83 637.308 435.221 635.584 437.696 634.61C440.158 633.616 442.354 633.909 442.322 634.099Z" fill="#253138"/>
<path d="M438.205 624.884C438.19 625.107 435.978 624.847 433.646 626.025C431.289 627.151 430.146 629.064 429.959 628.937C429.877 628.896 430.044 628.348 430.579 627.606C431.108 626.866 432.052 625.97 433.313 625.349C434.576 624.729 435.862 624.528 436.773 624.56C437.686 624.59 438.221 624.792 438.205 624.884Z" fill="#253138"/>
<path d="M432.914 624.247C432.876 624.267 432.614 623.877 432.337 623.081C432.065 622.292 431.784 621.075 431.884 619.551C431.962 618.817 431.977 617.91 432.667 617.104C433.008 616.698 433.693 616.489 434.251 616.738C434.801 616.975 435.151 617.437 435.384 617.93C436.245 619.935 435.403 622.628 433.292 623.918C431.156 625.175 428.544 624.808 426.881 623.49C426.485 623.133 426.105 622.646 426.11 622.006C426.11 621.365 426.653 620.865 427.135 620.74C428.13 620.462 428.957 620.733 429.684 620.886C431.155 621.269 432.234 621.883 432.918 622.362C433.607 622.844 433.915 623.196 433.888 623.228C433.813 623.361 432.403 622.046 429.562 621.407C428.861 621.283 428.034 621.096 427.337 621.334C426.995 621.45 426.773 621.705 426.776 622.021C426.77 622.329 427.011 622.693 427.338 622.965C428.723 624.032 431.111 624.364 432.901 623.274C434.69 622.202 435.428 619.834 434.75 618.214C434.581 617.826 434.303 617.486 433.994 617.349C433.69 617.214 433.353 617.291 433.117 617.539C432.619 618.059 432.505 618.901 432.416 619.599C432.129 622.496 433.069 624.215 432.914 624.247Z" fill="#253138"/>
<path d="M469.448 548.756L428.855 521.431L442.289 389.505L403.838 367.05L368.675 358.903C368.675 358.903 353.989 389.454 347.459 409.01C333.571 450.606 323.822 465.512 326.047 495.662C326.752 505.205 361.992 529.076 384.246 542.337C384.552 545.383 384.941 548.041 385.427 550.236C393.032 584.614 416.242 630.333 416.242 630.333L451.52 613.932L440.137 574.949L451.993 581.865L469.448 548.756ZM382.191 463.688L386.928 442.541C385.926 455.987 385.011 470.014 384.357 483.466C382.077 477.249 381.299 470.339 382.191 463.688Z" fill="#253138"/>
<path d="M416.242 630.331C416.23 630.337 416.139 630.147 415.969 629.775C415.789 629.368 415.548 628.816 415.239 628.111C414.599 626.604 413.683 624.444 412.511 621.678C410.168 616.08 406.814 607.963 402.777 597.891C398.761 587.811 393.98 575.806 389.165 562.279C387.964 558.899 386.788 555.412 385.684 551.813C385.195 549.99 384.581 548.193 384.26 546.263C384.167 545.789 384.059 545.31 383.98 544.831L383.811 543.393C383.705 542.431 383.596 541.464 383.488 540.493C383.076 536.608 382.732 532.644 382.478 528.617C382.351 526.603 382.243 524.573 382.162 522.527C382.089 520.49 381.998 518.409 382.115 516.339C382.711 499.762 384.105 484.05 385.251 469.746C386.446 455.457 387.522 442.585 388.426 431.763C389.302 420.95 389.914 412.193 390.261 406.139C390.451 403.111 390.556 400.76 390.626 399.164C390.668 398.394 390.7 397.793 390.724 397.35C390.75 396.94 390.772 396.73 390.784 396.732C390.797 396.732 390.803 396.941 390.802 397.352C390.797 397.796 390.788 398.398 390.779 399.168C390.756 400.766 390.699 403.123 390.556 406.154C390.299 412.217 389.767 420.983 388.96 431.806C388.099 442.633 387.078 455.507 385.944 469.803C384.837 484.1 383.465 499.83 382.871 516.354C382.752 518.418 382.843 520.452 382.916 522.499C382.995 524.536 383.102 526.561 383.228 528.57C383.479 532.586 383.818 536.54 384.225 540.416C384.331 541.384 384.436 542.348 384.543 543.308L384.708 544.743C384.786 545.214 384.891 545.676 384.98 546.138C385.283 547.997 385.895 549.803 386.376 551.606C387.466 555.187 388.631 558.669 389.82 562.05C394.593 575.569 399.322 587.593 403.272 597.694C407.277 607.747 410.522 615.893 412.784 621.564C413.898 624.353 414.771 626.533 415.379 628.053C415.659 628.77 415.879 629.331 416.04 629.745C416.186 630.128 416.254 630.327 416.242 630.331Z" fill="#455A63"/>
<path d="M389.112 392.273C389.08 392.313 388.755 392.051 388.186 391.524C387.657 390.968 387.014 390.031 386.468 388.765C385.376 386.225 384.822 382.433 384.739 378.3C384.663 374.152 384.97 370.417 385.242 367.728C385.523 365.04 385.749 363.384 385.851 363.392C385.958 363.398 385.918 365.073 385.775 367.768C385.64 370.463 385.42 374.184 385.494 378.283C385.578 382.371 386.04 386.079 386.967 388.569C387.431 389.811 387.97 390.741 388.409 391.334C388.888 391.895 389.144 392.234 389.112 392.273Z" fill="#455A63"/>
<path d="M373.93 360.876C374.006 360.86 374.372 362.26 374.231 364.567C374.105 366.854 373.326 370.072 371.322 373.015C369.317 375.958 366.605 377.859 364.524 378.814C362.427 379.79 360.99 379.96 360.978 379.882C360.941 379.758 362.311 379.404 364.281 378.338C366.242 377.291 368.782 375.401 370.698 372.589C372.614 369.779 373.444 366.725 373.7 364.517C373.971 362.293 373.801 360.888 373.93 360.876Z" fill="#455A63"/>
<path d="M437.008 437.576C437.022 437.577 437.019 437.714 437.001 437.978C436.975 438.285 436.942 438.671 436.902 439.15C436.793 440.237 436.642 441.743 436.451 443.654C436.017 447.621 435.402 453.262 434.646 460.207C433.058 474.224 430.877 493.495 428.468 514.781C427.536 525.439 428.466 535.695 430.466 544.731C431.454 549.261 432.763 553.465 434.14 557.356C435.507 561.252 436.779 564.885 437.942 568.207C440.229 574.809 442.088 580.17 443.395 583.938C444.008 585.759 444.493 587.194 444.841 588.227C444.988 588.686 445.105 589.056 445.201 589.351C445.276 589.606 445.311 589.737 445.297 589.741C445.285 589.744 445.227 589.621 445.128 589.376C445.016 589.089 444.874 588.727 444.7 588.279C444.318 587.258 443.789 585.838 443.119 584.037C441.757 580.287 439.822 574.953 437.439 568.387C436.248 565.073 434.947 561.451 433.552 557.564C432.144 553.675 430.799 549.437 429.787 544.883C427.735 535.792 426.776 525.456 427.715 514.717C430.089 493.372 432.447 474.118 434.116 460.152C434.972 453.218 435.668 447.588 436.156 443.627C436.408 441.722 436.607 440.219 436.75 439.137C436.821 438.661 436.878 438.276 436.923 437.971C436.967 437.709 436.995 437.574 437.008 437.576Z" fill="#455A63"/>
<path d="M368.677 358.648L374.903 342.737L389.109 363.924L370.165 359.188" fill="#FFBD9D"/>
<path d="M517.368 310.82L500.502 273.014C498.486 266.937 494.703 265.993 491.536 262.465L449.293 238.641C418.506 226.03 401.741 268.322 401.741 268.322L373.76 332.148C340.852 343.059 364.15 368.33 364.15 368.33C364.15 368.33 355.201 352.772 364.003 347.158C373.22 341.281 383.441 356.766 393.258 371.475C404.85 388.84 442.514 400.12 442.514 400.12C446.919 395.465 445.689 379.217 449.138 370.498C450.233 367.733 476.314 307.316 476.314 307.316L486.425 331.814C486.425 331.814 499.386 316.619 505.667 314.203C511.949 311.786 517.368 310.82 517.368 310.82Z" fill="#BA00E8"/>
<path d="M442.514 337.686C442.538 337.724 442.096 338.061 441.234 338.578C440.375 339.098 439.076 339.762 437.392 340.4C434.051 341.686 428.992 342.687 423.509 341.84C418.024 340.993 413.503 338.516 410.705 336.281C409.291 335.166 408.253 334.14 407.589 333.386C406.926 332.633 406.605 332.179 406.64 332.148C406.745 332.05 408.165 333.767 411.026 335.854C413.856 337.94 418.291 340.27 423.623 341.094C428.954 341.916 433.886 341.033 437.214 339.897C440.571 338.769 442.444 337.56 442.514 337.686Z" fill="#253138"/>
<path d="M372.506 277.737L398.575 280.198L440.283 236.115L415.753 235.273L372.074 239.583C372.074 239.583 375.942 257.788 372.506 277.737Z" fill="#BA00E8"/>
<path d="M408.715 254.51C408.738 254.522 408.627 254.8 408.396 255.318C408.121 255.907 407.776 256.653 407.35 257.57C406.393 259.611 405.081 262.411 403.48 265.829C400.238 272.815 395.938 282.545 391.275 293.335C386.613 304.13 382.371 313.896 379.165 320.905C377.564 324.411 376.243 327.239 375.293 329.174C374.843 330.078 374.479 330.812 374.188 331.394C373.928 331.899 373.781 332.159 373.757 332.148C373.732 332.138 373.836 331.855 374.05 331.331C374.305 330.733 374.629 329.978 375.026 329.049C375.929 326.983 377.166 324.149 378.677 320.689C381.759 313.53 385.949 303.794 390.582 293.036C395.246 282.242 399.629 272.537 402.997 265.601C404.677 262.133 406.075 259.343 407.086 257.439C407.563 256.548 407.952 255.823 408.259 255.252C408.536 254.754 408.691 254.499 408.715 254.51Z" fill="#253138"/>
<path d="M488.286 267.331C488.359 267.459 486.74 268.302 484.534 270.179C483.423 271.107 482.219 272.347 481.012 273.823C479.838 275.328 478.681 277.085 477.705 279.061C476.758 281.051 476.097 283.049 475.644 284.902C475.232 286.766 475.005 288.479 474.966 289.924C474.86 292.82 475.198 294.61 475.051 294.632C475.001 294.642 474.89 294.203 474.733 293.393C474.647 292.989 474.566 292.49 474.531 291.905C474.49 291.321 474.4 290.654 474.432 289.915C474.404 288.435 474.577 286.673 474.963 284.75C475.39 282.84 476.053 280.777 477.029 278.731C478.029 276.7 479.239 274.902 480.473 273.384C481.744 271.891 483.016 270.661 484.197 269.768C484.758 269.284 485.337 268.941 485.82 268.612C486.301 268.276 486.743 268.033 487.112 267.851C487.846 267.471 488.26 267.285 488.286 267.331Z" fill="#253138"/>
<path d="M495.57 206.786L471.111 252.503C467.118 259.968 458.033 263.073 450.307 259.615C441.8 255.808 438.281 245.6 442.637 237.361C444.943 233 446.857 229.44 446.857 229.44C446.857 229.44 436.224 222.549 441.196 211.059C445.631 200.808 461.921 171.875 465.381 165.757L485.992 174.982C497.57 180.996 501.902 195.38 495.57 206.786Z" fill="#FFBD9D"/>
<path d="M446.91 229.267C446.91 229.267 453.868 233.085 463.701 231.699C463.701 231.699 456.501 238.348 445.558 232.216L446.91 229.267Z" fill="#EB996D"/>
<path d="M454.766 192.714C454.352 193.562 454.724 194.614 455.602 195.066C456.478 195.514 457.525 195.195 457.942 194.347C458.358 193.498 457.983 192.445 457.107 191.995C456.23 191.544 455.181 191.866 454.766 192.714Z" fill="#253138"/>
<path d="M454.861 191.258C454.967 191.562 456.61 191.202 458.366 191.991C460.129 192.757 461.015 194.236 461.301 194.106C461.438 194.053 461.403 193.576 461.024 192.916C460.654 192.261 459.889 191.446 458.793 190.962C457.696 190.478 456.598 190.466 455.884 190.642C455.157 190.814 454.803 191.118 454.861 191.258Z" fill="#253138"/>
<path d="M471.195 200.796C470.778 201.644 471.152 202.696 472.029 203.146C472.906 203.596 473.954 203.275 474.37 202.428C474.785 201.58 474.411 200.527 473.536 200.077C472.659 199.626 471.61 199.948 471.195 200.796Z" fill="#253138"/>
<path d="M471.973 199.311C472.079 199.615 473.727 199.255 475.481 200.045C477.243 200.81 478.128 202.289 478.415 202.159C478.55 202.106 478.52 201.63 478.138 200.969C477.769 200.316 477.004 199.499 475.907 199.015C474.809 198.531 473.71 198.519 472.998 198.695C472.272 198.869 471.917 199.171 471.973 199.311Z" fill="#253138"/>
<path d="M459.774 209.481C459.825 209.386 458.817 208.709 457.15 207.691C456.723 207.444 456.337 207.165 456.399 206.824C456.439 206.453 456.841 206.055 457.293 205.63C458.2 204.733 459.15 203.793 460.147 202.808C464.165 198.771 467.287 195.371 467.124 195.21C466.96 195.05 463.569 198.192 459.552 202.229C458.573 203.231 457.638 204.183 456.746 205.096C456.347 205.529 455.797 205.978 455.724 206.751C455.695 207.14 455.916 207.531 456.168 207.738C456.417 207.954 456.668 208.072 456.884 208.183C458.621 209.075 459.722 209.579 459.774 209.481Z" fill="#253138"/>
<path d="M464.396 213.008C464.118 212.863 463.262 214.768 461.024 215.39C458.788 216.019 456.852 214.896 456.718 215.155C456.638 215.263 457.006 215.728 457.852 216.136C458.681 216.54 460.03 216.82 461.398 216.44C462.765 216.055 463.687 215.139 464.104 214.386C464.533 213.622 464.531 213.055 464.396 213.008Z" fill="#253138"/>
<path d="M474.598 192.226C474.559 192.781 476.411 193.339 478.362 194.509C480.333 195.642 481.725 196.988 482.19 196.681C482.405 196.532 482.315 195.953 481.85 195.19C481.392 194.43 480.525 193.517 479.35 192.825C478.175 192.137 476.954 191.826 476.066 191.796C475.174 191.763 474.625 191.966 474.598 192.226Z" fill="#253138"/>
<path d="M457.779 186.465C457.91 187.004 459.304 187.13 460.768 187.762C462.253 188.341 463.333 189.232 463.805 188.942C464.019 188.794 464.004 188.308 463.636 187.689C463.273 187.076 462.523 186.371 461.509 185.955C460.495 185.54 459.468 185.514 458.779 185.695C458.082 185.874 457.731 186.21 457.779 186.465Z" fill="#253138"/>
<path d="M487.878 213.638C488.111 213.641 496.77 214.83 493.023 222.53C489.278 230.231 482.32 224.882 482.414 224.655C482.508 224.427 487.878 213.638 487.878 213.638Z" fill="#FFBD9D"/>
<path d="M486.185 222.882C486.231 222.874 486.273 223.04 486.449 223.256C486.62 223.464 486.968 223.719 487.441 223.765C488.4 223.862 489.713 222.903 490.426 221.533C490.786 220.843 490.964 220.102 490.984 219.43C491.025 218.752 490.85 218.18 490.476 217.91C490.114 217.616 489.704 217.721 489.506 217.893C489.298 218.057 489.272 218.235 489.225 218.229C489.193 218.236 489.123 218.019 489.339 217.73C489.445 217.595 489.626 217.457 489.879 217.396C490.137 217.337 490.444 217.391 490.713 217.562C491.286 217.891 491.558 218.697 491.537 219.436C491.545 220.194 491.359 221.033 490.956 221.808C490.151 223.336 488.65 224.403 487.381 224.183C486.772 224.06 486.399 223.675 486.253 223.38C486.107 223.075 486.153 222.882 486.185 222.882Z" fill="#EB996D"/>
<path d="M492.344 215.32C491.282 214.497 488.728 214.675 487.722 215.564C486.714 216.452 486.038 217.665 485.03 218.556C484.024 219.445 482.429 219.943 481.361 219.126C480.626 218.563 480.382 217.53 480.531 216.616C480.678 215.701 481.154 214.876 481.636 214.085C483.729 210.643 486.114 207.368 487.906 203.76C489.696 200.152 490.88 196.099 490.351 192.106C489.824 188.112 487.308 184.223 483.511 182.88C480.996 181.989 478.204 182.258 475.641 181.516C472.602 180.638 470.029 178.274 468.897 175.321C468.752 174.944 467.89 173.593 467.89 173.593C467.976 173.404 468.883 171.852 469.792 171.545C476.557 169.261 485.735 171.884 491.344 176.304C496.953 180.723 500.88 187.836 500.95 194.977C501.019 202.118 496.526 209.997 492.344 215.32Z" fill="#253138"/>
<path d="M492.417 214.547C494.556 210.909 498.027 208.274 500.678 204.99C503.328 201.705 505.148 197.077 503.262 193.301C502.618 192.012 501.586 190.93 501.048 189.592C500.505 188.247 500.503 186.759 500.297 185.324C499.654 180.89 496.851 176.821 492.937 174.638C490.231 173.129 487.109 172.512 484.366 171.069C480.023 168.786 476.846 164.555 472.283 162.75C470.769 162.152 468.997 161.861 467.55 162.608C466.101 163.354 465.324 165.453 466.379 166.693C466.192 165.237 464.305 164.436 462.967 165.043C461.628 165.648 460.944 167.241 461.035 168.706C461.125 170.171 461.853 171.522 462.692 172.726C465.464 176.695 469.701 179.612 474.397 180.787L484.888 179.967L493.49 186.342L499.857 196.476L488.311 211.476L492.417 214.547Z" fill="#253138"/>
<rect width="800" height="800" fill="#1E1E37" fill-opacity="0.51"/>
</g>
<defs>
<clipPath id="clip0">
<rect width="800" height="800" fill="white"/>
</clipPath>
</defs>
</svg>
