<svg width="800" height="800" viewBox="0 0 800 800" fill="none" xmlns="http://www.w3.org/2000/svg">
<rect width="800" height="800" fill="#00071B"/>
<path d="M729 772.297V751H737.999C738.919 751 739.758 751.19 740.518 751.57C741.298 751.95 741.968 752.47 742.528 753.13C743.088 753.77 743.518 754.489 743.818 755.289C744.138 756.069 744.298 756.869 744.298 757.689C744.298 758.729 744.098 759.699 743.698 760.599C743.318 761.498 742.768 762.258 742.048 762.878C741.328 763.498 740.498 763.898 739.558 764.078L742.408 771.203L742.048 771.672L738.36 764.078L731.1 764.438V772.297H729ZM731.1 762.578H738.059C738.899 762.578 739.628 762.348 740.248 761.888C740.868 761.408 741.348 760.799 741.688 760.059C742.028 759.319 742.198 758.529 742.198 757.689C742.198 756.829 741.998 756.039 741.598 755.319C741.218 754.579 740.698 753.99 740.038 753.55C739.378 753.09 738.659 752.86 737.879 752.86H731.1V762.578Z" fill="#00071B" fill-opacity="0.19"/>
<path d="M742.633 751.15H744.613L747.612 758.709L750.642 751.15H752.651L748.932 760.239L753.011 769.867L760.72 751H763L753.971 772.297H752.112L747.642 761.768L743.143 772.297H741.313L732.314 751H734.564L742.303 769.867L746.352 760.239L742.633 751.15Z" fill="#00071B" fill-opacity="0.19"/>
<path d="M346.5 452.75C346.5 457.631 350.494 461.625 355.375 461.625H364.25V492.688C364.25 500.054 370.196 506 377.562 506C384.929 506 390.875 500.054 390.875 492.688V461.625H408.625V492.688C408.625 500.054 414.571 506 421.938 506C429.304 506 435.25 500.054 435.25 492.688V461.625H444.125C449.006 461.625 453 457.631 453 452.75V364H346.5V452.75ZM324.312 364C316.946 364 311 369.946 311 377.312V439.438C311 446.804 316.946 452.75 324.312 452.75C331.679 452.75 337.625 446.804 337.625 439.438V377.312C337.625 369.946 331.679 364 324.312 364ZM475.188 364C467.821 364 461.875 369.946 461.875 377.312V439.438C461.875 446.804 467.821 452.75 475.188 452.75C482.554 452.75 488.5 446.804 488.5 439.438V377.312C488.5 369.946 482.554 364 475.188 364ZM431.079 312.17L442.616 300.633C444.391 298.858 444.391 296.106 442.616 294.331C440.841 292.556 438.09 292.556 436.315 294.331L423.18 307.466C416.169 303.916 408.181 301.875 399.75 301.875C391.23 301.875 383.243 303.916 376.143 307.466L362.919 294.331C361.144 292.556 358.392 292.556 356.617 294.331C354.842 296.106 354.842 298.858 356.617 300.633L368.244 312.259C355.109 321.933 346.5 337.464 346.5 355.125H453C453 337.464 444.391 321.844 431.079 312.17V312.17ZM382 337.375H373.125V328.5H382V337.375ZM426.375 337.375H417.5V328.5H426.375V337.375Z" fill="#73E77F"/>
<rect width="800" height="800" fill="url(#paint0_linear)"/>
<defs>
<linearGradient id="paint0_linear" x1="-8.5" y1="471" x2="916.5" y2="471" gradientUnits="userSpaceOnUse">
<stop stop-color="#00071B"/>
<stop offset="1" stop-color="#00071B" stop-opacity="0"/>
</linearGradient>
</defs>
</svg>
