<svg width="80" height="80" viewBox="0 0 80 80" fill="none" xmlns="http://www.w3.org/2000/svg">
<path d="M0 40C0 17.9086 17.9086 0 40 0C62.0914 0 80 17.9086 80 40C80 62.0914 62.0914 80 40 80C17.9086 80 0 62.0914 0 40Z" fill="white"/>
<path fill-rule="evenodd" clip-rule="evenodd" d="M40.9438 15.0853C38.4793 15.9589 36.1002 18.5087 33.8065 22.7346C30.366 29.0735 25.9225 38.0812 32.0413 45.2131C34.872 48.5125 39.546 50.4598 45.6798 47.3757C50.6074 44.8981 51.9778 37.788 50.2087 34.4469C46.5595 27.5547 42.8572 25.8548 41.8657 21.5806C41.2048 18.7311 40.8975 16.566 40.9438 15.0853V15.0853Z" fill="url(#paint0_linear)"/>
<path fill-rule="evenodd" clip-rule="evenodd" d="M40.9443 15C38.4672 15.8826 36.0881 18.4323 33.807 22.6493C30.3852 28.9747 25.9229 37.9958 32.0417 45.1277C34.8725 48.4272 39.4863 49.4934 42.0463 47.5365C43.7153 46.2608 44.8504 45.0448 45.5044 42.4827C46.2326 39.6299 45.6739 35.789 45.291 34.0246C44.8066 31.792 44.648 29.3414 44.8153 26.6731C44.7564 26.6012 44.7123 26.5475 44.6832 26.5118C43.3504 24.8807 42.3219 23.4599 41.8662 21.4953C41.2053 18.6458 40.898 16.4807 40.9443 15V15Z" fill="url(#paint1_linear)"/>
<path fill-rule="evenodd" clip-rule="evenodd" d="M38.8928 16.1098C36.5856 17.9332 34.8702 20.9918 33.7464 25.2854C32.0609 31.7258 31.8782 37.6649 32.4727 41.1194C33.6251 47.8161 39.5996 50.3581 45.7277 47.241C49.4991 45.3228 51.0699 41.2052 50.9866 36.7357C50.9005 32.1079 41.9575 26.863 40.3737 23.0008C39.3179 20.426 38.8242 18.129 38.8928 16.1098V16.1098Z" fill="url(#paint2_linear)"/>
<path fill-rule="evenodd" clip-rule="evenodd" d="M44.742 28.1843C47.509 31.7329 48.1122 34.2032 46.5515 35.5951C44.2104 37.683 38.4856 39.0452 34.9241 36.5196C32.5498 34.8358 31.6515 31.2238 32.2291 25.6835C31.249 27.7304 30.4203 29.8039 29.743 31.904C29.0657 34.0042 28.8679 36.2019 29.1497 38.4973C29.9984 40.2145 32.0621 41.3613 35.3408 41.9379C40.2587 42.8027 44.9134 42.3754 48.0367 40.8009C50.119 39.7512 51.1038 38.7063 50.9914 37.6662C51.0665 36.1302 50.5929 34.668 49.5704 33.2797C48.548 31.8913 46.9385 30.1929 44.742 28.1843V28.1843Z" fill="url(#paint3_linear)"/>
<path fill-rule="evenodd" clip-rule="evenodd" d="M33.929 24.6409C33.9058 27.2038 34.5648 29.64 35.9059 31.9497C37.9175 35.4143 40.2656 38.8378 43.7794 41.6755C46.1218 43.5673 47.9936 44.1785 49.3946 43.5091C48.2439 45.5685 47.0203 46.5777 45.7239 46.5365C43.7794 46.4748 41.4083 45.625 37.6092 41.0596C35.0764 38.016 33.3438 35.1369 32.4112 32.4224C32.5591 31.3456 32.7159 30.273 32.8817 29.2046C33.0474 28.1363 33.3965 26.6151 33.929 24.6409V24.6409Z" fill="url(#paint4_linear)"/>
<path fill-rule="evenodd" clip-rule="evenodd" d="M39.8719 28.1581C40.0868 30.2458 40.8992 33.5855 39.8719 35.809C38.8445 38.0326 34.0993 42.0495 35.4092 45.588C36.7191 49.1266 39.9112 48.3321 41.9136 46.7014C43.9159 45.0707 44.9877 42.419 45.2253 40.5542C45.4629 38.6894 44.6569 35.1013 44.3947 31.9802C44.22 29.8996 44.3386 28.1156 44.7504 26.6284L44.1369 25.8563L40.5255 24.787C39.9464 25.6425 39.7286 26.7662 39.8719 28.1581V28.1581Z" fill="url(#paint5_linear)"/>
<path fill-rule="evenodd" clip-rule="evenodd" d="M41.161 17.8171C39.9921 18.311 38.8847 19.2896 37.8387 20.7531C36.2696 22.9482 35.4705 24.264 36.062 28.6153C36.4564 31.5161 36.7386 34.1849 36.9088 36.6215L41.967 21.925C41.7811 21.1761 41.6264 20.4998 41.503 19.896C41.3796 19.2923 41.2656 18.5993 41.161 17.8171V17.8171Z" fill="url(#paint6_linear)"/>
<path fill-rule="evenodd" clip-rule="evenodd" d="M41.9573 21.8958C40.6732 22.6453 39.6783 24.1808 38.9724 26.5023C38.2665 28.8238 37.6207 32.0692 37.035 36.2385C37.8162 33.5867 38.3344 31.666 38.5896 30.4764C38.9724 28.692 39.1031 26.1686 40.1196 24.4555C40.7972 23.3135 41.4098 22.4602 41.9573 21.8958V21.8958Z" fill="#330A4C" fill-opacity="0.316321"/>
<path fill-rule="evenodd" clip-rule="evenodd" d="M36.0118 46.7698C38.1249 47.0717 39.2299 47.3401 39.3267 47.575C39.4719 47.9273 39.0592 48.2496 37.8862 48.033C37.1043 47.8886 36.4795 47.4675 36.0118 46.7698Z" fill="white"/>
<path fill-rule="evenodd" clip-rule="evenodd" d="M37.0734 17.8171C35.9111 19.2056 34.904 20.6776 34.052 22.2331C33.2001 23.7887 32.5913 24.9492 32.2257 25.7146C32.1124 26.2855 32.0571 27.1279 32.0598 28.2418C32.0626 29.3556 32.1589 30.5941 32.3489 31.9573C32.5152 29.288 33.0244 26.697 33.8765 24.1844C34.7286 21.6717 35.7942 19.5493 37.0734 17.8171V17.8171Z" fill="#EDEDED" fill-opacity="0.603261"/>
<path d="M27.3291 61.127C26.1315 61.127 25.2005 60.8096 24.5361 60.1748C23.876 59.5358 23.5459 58.6281 23.5459 57.4517C23.5459 56.2371 23.8527 55.3062 24.4663 54.6587C25.0799 54.007 25.9559 53.6812 27.0942 53.6812C28.1776 53.6812 29.0133 53.9647 29.6016 54.5317C30.194 55.0946 30.4902 55.9071 30.4902 56.9692V58.0737H26.0532C26.0701 58.4757 26.2161 58.791 26.4912 59.0195C26.7705 59.248 27.1493 59.3623 27.6274 59.3623C28.0633 59.3623 28.4632 59.3221 28.8271 59.2417C29.1953 59.1571 29.5931 59.0153 30.0205 58.8164V60.6001C29.6312 60.799 29.2292 60.9365 28.8145 61.0127C28.3997 61.0889 27.9046 61.127 27.3291 61.127ZM27.1831 55.3696C26.8911 55.3696 26.6457 55.4627 26.4468 55.6489C26.2521 55.8309 26.1379 56.1187 26.104 56.5122H28.2368C28.2284 56.1652 28.1289 55.888 27.9385 55.6807C27.7523 55.4733 27.5005 55.3696 27.1831 55.3696ZM34.375 61H31.8931V51.123H34.375V61ZM38.5898 61H36.1079V53.8081H38.5898V61ZM36.0444 52.0181C36.0444 51.6457 36.1481 51.3685 36.3555 51.1865C36.5628 51.0046 36.8971 50.9136 37.3584 50.9136C37.8197 50.9136 38.1561 51.0067 38.3677 51.1929C38.5793 51.3791 38.6851 51.6541 38.6851 52.0181C38.6851 52.7459 38.2428 53.1099 37.3584 53.1099C36.4824 53.1099 36.0444 52.7459 36.0444 52.0181ZM41.8462 57.3311L39.6499 53.8081H42.4683L43.5601 55.8267L44.6772 53.8081H47.502L45.2485 57.3311L47.5908 61H44.7725L43.5601 58.8164L42.354 61H39.5293L41.8462 57.3311ZM51.0059 61H48.5239V53.8081H51.0059V61ZM48.4604 52.0181C48.4604 51.6457 48.5641 51.3685 48.7715 51.1865C48.9788 51.0046 49.3132 50.9136 49.7744 50.9136C50.2357 50.9136 50.5721 51.0067 50.7837 51.1929C50.9953 51.3791 51.1011 51.6541 51.1011 52.0181C51.1011 52.7459 50.6589 53.1099 49.7744 53.1099C48.8984 53.1099 48.4604 52.7459 48.4604 52.0181ZM57.0806 53.6812C57.2964 53.6812 57.5016 53.6981 57.6963 53.7319L57.8359 53.7573L57.6138 56.0996C57.4106 56.0488 57.1292 56.0234 56.7695 56.0234C56.2279 56.0234 55.8343 56.1483 55.5889 56.3979C55.3434 56.6434 55.2207 56.9989 55.2207 57.4644V61H52.7388V53.8081H54.5859L54.9731 54.957H55.0938C55.3011 54.5762 55.5889 54.2694 55.957 54.0366C56.3294 53.7996 56.7039 53.6812 57.0806 53.6812Z" fill="#340A50"/>
<defs>
<linearGradient id="paint0_linear" x1="40.4691" y1="17.5856" x2="39.2923" y2="48.8971" gradientUnits="userSpaceOnUse">
<stop stop-color="#D9D8DC"/>
<stop offset="1" stop-color="white" stop-opacity="0.385275"/>
</linearGradient>
<linearGradient id="paint1_linear" x1="41.0015" y1="17.5777" x2="28.703" y2="44.5325" gradientUnits="userSpaceOnUse">
<stop stop-color="#8D67AF" stop-opacity="0.671932"/>
<stop offset="1" stop-color="#9F8DAF"/>
</linearGradient>
<linearGradient id="paint2_linear" x1="42.3739" y1="26.311" x2="42.3739" y2="47.987" gradientUnits="userSpaceOnUse">
<stop stop-color="#26053D" stop-opacity="0.761634"/>
<stop offset="1" stop-color="#B7B4B4" stop-opacity="0.277683"/>
</linearGradient>
<linearGradient id="paint3_linear" x1="31.2522" y1="27.7768" x2="36.7704" y2="42.3943" gradientUnits="userSpaceOnUse">
<stop stop-color="#91739F" stop-opacity="0.45955"/>
<stop offset="1" stop-color="#32054F" stop-opacity="0.539912"/>
</linearGradient>
<linearGradient id="paint4_linear" x1="46.0018" y1="45.7517" x2="30.8272" y2="33.178" gradientUnits="userSpaceOnUse">
<stop stop-color="#463D49" stop-opacity="0.331182"/>
<stop offset="1" stop-color="#340A50" stop-opacity="0.821388"/>
</linearGradient>
<linearGradient id="paint5_linear" x1="42.8828" y1="26.5154" x2="32.1804" y2="42.7967" gradientUnits="userSpaceOnUse">
<stop stop-color="#715383" stop-opacity="0.145239"/>
<stop offset="1" stop-color="#F4F4F4" stop-opacity="0.233639"/>
</linearGradient>
<linearGradient id="paint6_linear" x1="43.9064" y1="31.4813" x2="36.3271" y2="31.0186" gradientUnits="userSpaceOnUse">
<stop stop-color="#A5A1A8" stop-opacity="0.356091"/>
<stop offset="1" stop-color="#370C50" stop-opacity="0.581975"/>
</linearGradient>
</defs>
</svg>
