<svg width="80" height="80" viewBox="0 0 80 80" fill="none" xmlns="http://www.w3.org/2000/svg">
<path d="M0 40C0 17.9086 17.9086 0 40 0C62.0914 0 80 17.9086 80 40C80 62.0914 62.0914 80 40 80C17.9086 80 0 62.0914 0 40Z" fill="url(#paint0_linear)"/>
<path d="M21.0273 51H9.16016V31.0117H21.0273V35.3457H14.5605V38.4902H20.5488V42.8242H14.5605V46.5977H21.0273V51ZM37.5977 44.9297C37.5977 46.1693 37.2832 47.2721 36.6543 48.2383C36.0254 49.1953 35.1185 49.9427 33.9336 50.4805C32.7487 51.0091 31.3587 51.2734 29.7637 51.2734C28.4329 51.2734 27.3164 51.1823 26.4141 51C25.5117 50.8086 24.5729 50.4805 23.5977 50.0156V45.2031C24.6276 45.7318 25.6986 46.1465 26.8105 46.4473C27.9225 46.7389 28.9434 46.8848 29.873 46.8848C30.6751 46.8848 31.263 46.748 31.6367 46.4746C32.0104 46.1921 32.1973 45.832 32.1973 45.3945C32.1973 45.1211 32.1198 44.8841 31.9648 44.6836C31.819 44.474 31.5775 44.2643 31.2402 44.0547C30.9121 43.8451 30.028 43.4167 28.5879 42.7695C27.2845 42.1771 26.3047 41.6029 25.6484 41.0469C25.0013 40.4909 24.5182 39.8529 24.1992 39.1328C23.8893 38.4128 23.7344 37.5605 23.7344 36.5762C23.7344 34.735 24.4043 33.2995 25.7441 32.2695C27.084 31.2396 28.9251 30.7246 31.2676 30.7246C33.3366 30.7246 35.4466 31.2031 37.5977 32.1602L35.9434 36.3301C34.0749 35.4733 32.4616 35.0449 31.1035 35.0449C30.4017 35.0449 29.8913 35.168 29.5723 35.4141C29.2533 35.6602 29.0938 35.9655 29.0938 36.3301C29.0938 36.722 29.2943 37.0729 29.6953 37.3828C30.1055 37.6927 31.2083 38.2578 33.0039 39.0781C34.7266 39.8529 35.9206 40.6868 36.5859 41.5801C37.2604 42.4642 37.5977 43.5807 37.5977 44.9297ZM51.4062 51H45.9238V40.418C45.9238 39.1328 45.9512 37.957 46.0059 36.8906C45.6686 37.3008 45.2493 37.7292 44.748 38.1758L42.4785 40.0488L39.6758 36.6035L46.5391 31.0117H51.4062V51ZM70.3555 41.0332C70.3555 44.5697 69.763 47.1628 68.5781 48.8125C67.3932 50.4531 65.5794 51.2734 63.1367 51.2734C60.7487 51.2734 58.9486 50.4167 57.7363 48.7031C56.5241 46.9805 55.918 44.4238 55.918 41.0332C55.918 37.4785 56.5104 34.8717 57.6953 33.2129C58.8802 31.554 60.694 30.7246 63.1367 30.7246C65.5156 30.7246 67.3112 31.5905 68.5234 33.3223C69.7448 35.0449 70.3555 37.6152 70.3555 41.0332ZM61.291 41.0332C61.291 43.2936 61.4323 44.8477 61.7148 45.6953C61.9974 46.543 62.4714 46.9668 63.1367 46.9668C63.8112 46.9668 64.2852 46.5293 64.5586 45.6543C64.8411 44.7793 64.9824 43.2389 64.9824 41.0332C64.9824 38.8184 64.8411 37.2689 64.5586 36.3848C64.276 35.4915 63.8021 35.0449 63.1367 35.0449C62.4714 35.0449 61.9974 35.4733 61.7148 36.3301C61.4323 37.1868 61.291 38.7546 61.291 41.0332Z" fill="white"/>
<defs>
<linearGradient id="paint0_linear" x1="55.5" y1="4" x2="24.5" y2="76.5" gradientUnits="userSpaceOnUse">
<stop stop-color="#DDC400" stop-opacity="0.96"/>
<stop offset="0.458333" stop-color="#FFE400"/>
<stop offset="1" stop-color="#E5BA4B"/>
<stop offset="1" stop-color="#DDC400"/>
</linearGradient>
</defs>
</svg>
