<svg width="80" height="80" viewBox="0 0 80 80" fill="none" xmlns="http://www.w3.org/2000/svg">
<path d="M0 40C0 17.9086 17.9086 0 40 0C62.0914 0 80 17.9086 80 40C80 62.0914 62.0914 80 40 80C17.9086 80 0 62.0914 0 40Z" fill="url(#paint0_linear)"/>
<path d="M30.0273 51H18.1602V31.0117H30.0273V35.3457H23.5605V38.4902H29.5488V42.8242H23.5605V46.5977H30.0273V51ZM46.5977 44.9297C46.5977 46.1693 46.2832 47.2721 45.6543 48.2383C45.0254 49.1953 44.1185 49.9427 42.9336 50.4805C41.7487 51.0091 40.3587 51.2734 38.7637 51.2734C37.4329 51.2734 36.3164 51.1823 35.4141 51C34.5117 50.8086 33.5729 50.4805 32.5977 50.0156V45.2031C33.6276 45.7318 34.6986 46.1465 35.8105 46.4473C36.9225 46.7389 37.9434 46.8848 38.873 46.8848C39.6751 46.8848 40.263 46.748 40.6367 46.4746C41.0104 46.1921 41.1973 45.832 41.1973 45.3945C41.1973 45.1211 41.1198 44.8841 40.9648 44.6836C40.819 44.474 40.5775 44.2643 40.2402 44.0547C39.9121 43.8451 39.028 43.4167 37.5879 42.7695C36.2845 42.1771 35.3047 41.6029 34.6484 41.0469C34.0013 40.4909 33.5182 39.8529 33.1992 39.1328C32.8893 38.4128 32.7344 37.5605 32.7344 36.5762C32.7344 34.735 33.4043 33.2995 34.7441 32.2695C36.084 31.2396 37.9251 30.7246 40.2676 30.7246C42.3366 30.7246 44.4466 31.2031 46.5977 32.1602L44.9434 36.3301C43.0749 35.4733 41.4616 35.0449 40.1035 35.0449C39.4017 35.0449 38.8913 35.168 38.5723 35.4141C38.2533 35.6602 38.0938 35.9655 38.0938 36.3301C38.0938 36.722 38.2943 37.0729 38.6953 37.3828C39.1055 37.6927 40.2083 38.2578 42.0039 39.0781C43.7266 39.8529 44.9206 40.6868 45.5859 41.5801C46.2604 42.4642 46.5977 43.5807 46.5977 44.9297ZM48.4844 42.5508C48.4844 39.7617 48.8809 37.5059 49.6738 35.7832C50.4759 34.0514 51.6517 32.7754 53.2012 31.9551C54.7598 31.1348 56.6784 30.7246 58.957 30.7246C59.7682 30.7246 60.7161 30.8021 61.8008 30.957V35.1816C60.8893 35.0085 59.9004 34.9219 58.834 34.9219C57.0293 34.9219 55.6849 35.3184 54.8008 36.1113C53.9167 36.9043 53.4336 38.1986 53.3516 39.9941H53.5156C54.3359 38.4447 55.653 37.6699 57.4668 37.6699C59.2441 37.6699 60.6204 38.2441 61.5957 39.3926C62.5801 40.5319 63.0723 42.1224 63.0723 44.1641C63.0723 46.3607 62.4525 48.097 61.2129 49.373C59.9733 50.64 58.2415 51.2734 56.0176 51.2734C53.6569 51.2734 51.8112 50.5078 50.4805 48.9766C49.1497 47.4453 48.4844 45.3034 48.4844 42.5508ZM55.8945 46.9941C56.4688 46.9941 56.9336 46.7799 57.2891 46.3516C57.6536 45.9141 57.8359 45.2214 57.8359 44.2734C57.8359 42.651 57.207 41.8398 55.9492 41.8398C55.3294 41.8398 54.8236 42.0495 54.4316 42.4688C54.0488 42.888 53.8574 43.3984 53.8574 44C53.8574 44.875 54.0443 45.5951 54.418 46.1602C54.7917 46.7161 55.2839 46.9941 55.8945 46.9941Z" fill="white"/>
<defs>
<linearGradient id="paint0_linear" x1="55.5" y1="4" x2="24.5" y2="76.5" gradientUnits="userSpaceOnUse">
<stop stop-color="#DDC400" stop-opacity="0.96"/>
<stop offset="0.458333" stop-color="#FFE400"/>
<stop offset="1" stop-color="#E5BA4B"/>
<stop offset="1" stop-color="#DDC400"/>
</linearGradient>
</defs>
</svg>
