<svg width="80" height="80" viewBox="0 0 80 80" fill="none" xmlns="http://www.w3.org/2000/svg">
<path d="M0 40C0 17.9086 17.9086 0 40 0C62.0914 0 80 17.9086 80 40C80 62.0914 62.0914 80 40 80C17.9086 80 0 62.0914 0 40Z" fill="url(#paint0_linear)"/>
<path d="M30.0273 51H18.1602V31.0117H30.0273V35.3457H23.5605V38.4902H29.5488V42.8242H23.5605V46.5977H30.0273V51ZM46.5977 44.9297C46.5977 46.1693 46.2832 47.2721 45.6543 48.2383C45.0254 49.1953 44.1185 49.9427 42.9336 50.4805C41.7487 51.0091 40.3587 51.2734 38.7637 51.2734C37.4329 51.2734 36.3164 51.1823 35.4141 51C34.5117 50.8086 33.5729 50.4805 32.5977 50.0156V45.2031C33.6276 45.7318 34.6986 46.1465 35.8105 46.4473C36.9225 46.7389 37.9434 46.8848 38.873 46.8848C39.6751 46.8848 40.263 46.748 40.6367 46.4746C41.0104 46.1921 41.1973 45.832 41.1973 45.3945C41.1973 45.1211 41.1198 44.8841 40.9648 44.6836C40.819 44.474 40.5775 44.2643 40.2402 44.0547C39.9121 43.8451 39.028 43.4167 37.5879 42.7695C36.2845 42.1771 35.3047 41.6029 34.6484 41.0469C34.0013 40.4909 33.5182 39.8529 33.1992 39.1328C32.8893 38.4128 32.7344 37.5605 32.7344 36.5762C32.7344 34.735 33.4043 33.2995 34.7441 32.2695C36.084 31.2396 37.9251 30.7246 40.2676 30.7246C42.3366 30.7246 44.4466 31.2031 46.5977 32.1602L44.9434 36.3301C43.0749 35.4733 41.4616 35.0449 40.1035 35.0449C39.4017 35.0449 38.8913 35.168 38.5723 35.4141C38.2533 35.6602 38.0938 35.9655 38.0938 36.3301C38.0938 36.722 38.2943 37.0729 38.6953 37.3828C39.1055 37.6927 40.2083 38.2578 42.0039 39.0781C43.7266 39.8529 44.9206 40.6868 45.5859 41.5801C46.2604 42.4642 46.5977 43.5807 46.5977 44.9297ZM50.3848 51L57.248 35.5098H48.5938V31.0391H63.0176V34.2246L55.9766 51H50.3848Z" fill="white"/>
<defs>
<linearGradient id="paint0_linear" x1="55.5" y1="4" x2="24.5" y2="76.5" gradientUnits="userSpaceOnUse">
<stop stop-color="#DDC400" stop-opacity="0.96"/>
<stop offset="0.458333" stop-color="#FFE400"/>
<stop offset="1" stop-color="#E5BA4B"/>
<stop offset="1" stop-color="#DDC400"/>
</linearGradient>
</defs>
</svg>
