<svg width="80" height="80" viewBox="0 0 80 80" fill="none" xmlns="http://www.w3.org/2000/svg">
<path d="M0 40C0 17.9086 17.9086 0 40 0C62.0914 0 80 17.9086 80 40C80 62.0914 62.0914 80 40 80C17.9086 80 0 62.0914 0 40Z" fill="url(#paint0_linear)"/>
<path d="M30.0273 51H18.1602V31.0117H30.0273V35.3457H23.5605V38.4902H29.5488V42.8242H23.5605V46.5977H30.0273V51ZM46.5977 44.9297C46.5977 46.1693 46.2832 47.2721 45.6543 48.2383C45.0254 49.1953 44.1185 49.9427 42.9336 50.4805C41.7487 51.0091 40.3587 51.2734 38.7637 51.2734C37.4329 51.2734 36.3164 51.1823 35.4141 51C34.5117 50.8086 33.5729 50.4805 32.5977 50.0156V45.2031C33.6276 45.7318 34.6986 46.1465 35.8105 46.4473C36.9225 46.7389 37.9434 46.8848 38.873 46.8848C39.6751 46.8848 40.263 46.748 40.6367 46.4746C41.0104 46.1921 41.1973 45.832 41.1973 45.3945C41.1973 45.1211 41.1198 44.8841 40.9648 44.6836C40.819 44.474 40.5775 44.2643 40.2402 44.0547C39.9121 43.8451 39.028 43.4167 37.5879 42.7695C36.2845 42.1771 35.3047 41.6029 34.6484 41.0469C34.0013 40.4909 33.5182 39.8529 33.1992 39.1328C32.8893 38.4128 32.7344 37.5605 32.7344 36.5762C32.7344 34.735 33.4043 33.2995 34.7441 32.2695C36.084 31.2396 37.9251 30.7246 40.2676 30.7246C42.3366 30.7246 44.4466 31.2031 46.5977 32.1602L44.9434 36.3301C43.0749 35.4733 41.4616 35.0449 40.1035 35.0449C39.4017 35.0449 38.8913 35.168 38.5723 35.4141C38.2533 35.6602 38.0938 35.9655 38.0938 36.3301C38.0938 36.722 38.2943 37.0729 38.6953 37.3828C39.1055 37.6927 40.2083 38.2578 42.0039 39.0781C43.7266 39.8529 44.9206 40.6868 45.5859 41.5801C46.2604 42.4642 46.5977 43.5807 46.5977 44.9297ZM55.7852 30.7246C57.8906 30.7246 59.5267 31.1484 60.6934 31.9961C61.8691 32.8438 62.457 34.0469 62.457 35.6055C62.457 36.6628 62.179 37.5924 61.623 38.3945C61.0762 39.1875 60.2057 39.8802 59.0117 40.4727C60.4883 41.3112 61.5273 42.1497 62.1289 42.9883C62.7396 43.8177 63.0449 44.7155 63.0449 45.6816C63.0449 47.459 62.4023 48.8353 61.1172 49.8105C59.832 50.7858 58.0365 51.2734 55.7305 51.2734C53.3789 51.2734 51.5788 50.7995 50.3301 49.8516C49.0814 48.8945 48.457 47.5228 48.457 45.7363C48.457 44.5788 48.735 43.5944 49.291 42.7832C49.847 41.9629 50.7812 41.2201 52.0938 40.5547C51.0365 39.8438 50.2617 39.0827 49.7695 38.2715C49.2865 37.4512 49.0449 36.5534 49.0449 35.5781C49.0449 34.0469 49.6419 32.8574 50.8359 32.0098C52.0299 31.153 53.6797 30.7246 55.7852 30.7246ZM53.4062 45.5176C53.4062 46.0827 53.6068 46.5384 54.0078 46.8848C54.4089 47.222 54.9648 47.3906 55.6758 47.3906C57.2799 47.3906 58.082 46.8027 58.082 45.627C58.082 45.1803 57.9043 44.7428 57.5488 44.3145C57.2025 43.877 56.5781 43.3893 55.6758 42.8516C54.8646 43.2799 54.2812 43.7129 53.9258 44.1504C53.5794 44.5788 53.4062 45.0345 53.4062 45.5176ZM55.7578 34.6211C55.293 34.6211 54.901 34.7578 54.582 35.0312C54.263 35.2956 54.1035 35.6419 54.1035 36.0703C54.1035 36.8542 54.6367 37.5469 55.7031 38.1484C56.3503 37.7747 56.7923 37.4329 57.0293 37.123C57.2663 36.8132 57.3848 36.4622 57.3848 36.0703C57.3848 35.6328 57.2253 35.2819 56.9062 35.0176C56.5872 34.7533 56.2044 34.6211 55.7578 34.6211Z" fill="white"/>
<defs>
<linearGradient id="paint0_linear" x1="55.5" y1="4" x2="24.5" y2="76.5" gradientUnits="userSpaceOnUse">
<stop stop-color="#DDC400" stop-opacity="0.96"/>
<stop offset="0.458333" stop-color="#FFE400"/>
<stop offset="1" stop-color="#E5BA4B"/>
<stop offset="1" stop-color="#DDC400"/>
</linearGradient>
</defs>
</svg>
