<svg width="80" height="80" viewBox="0 0 80 80" fill="none" xmlns="http://www.w3.org/2000/svg">
<path d="M0 40C0 17.9086 17.9086 0 40 0C62.0914 0 80 17.9086 80 40C80 62.0914 62.0914 80 40 80C17.9086 80 0 62.0914 0 40Z" fill="url(#paint0_linear)"/>
<path d="M30.0273 51H18.1602V31.0117H30.0273V35.3457H23.5605V38.4902H29.5488V42.8242H23.5605V46.5977H30.0273V51ZM46.5977 44.9297C46.5977 46.1693 46.2832 47.2721 45.6543 48.2383C45.0254 49.1953 44.1185 49.9427 42.9336 50.4805C41.7487 51.0091 40.3587 51.2734 38.7637 51.2734C37.4329 51.2734 36.3164 51.1823 35.4141 51C34.5117 50.8086 33.5729 50.4805 32.5977 50.0156V45.2031C33.6276 45.7318 34.6986 46.1465 35.8105 46.4473C36.9225 46.7389 37.9434 46.8848 38.873 46.8848C39.6751 46.8848 40.263 46.748 40.6367 46.4746C41.0104 46.1921 41.1973 45.832 41.1973 45.3945C41.1973 45.1211 41.1198 44.8841 40.9648 44.6836C40.819 44.474 40.5775 44.2643 40.2402 44.0547C39.9121 43.8451 39.028 43.4167 37.5879 42.7695C36.2845 42.1771 35.3047 41.6029 34.6484 41.0469C34.0013 40.4909 33.5182 39.8529 33.1992 39.1328C32.8893 38.4128 32.7344 37.5605 32.7344 36.5762C32.7344 34.735 33.4043 33.2995 34.7441 32.2695C36.084 31.2396 37.9251 30.7246 40.2676 30.7246C42.3366 30.7246 44.4466 31.2031 46.5977 32.1602L44.9434 36.3301C43.0749 35.4733 41.4616 35.0449 40.1035 35.0449C39.4017 35.0449 38.8913 35.168 38.5723 35.4141C38.2533 35.6602 38.0938 35.9655 38.0938 36.3301C38.0938 36.722 38.2943 37.0729 38.6953 37.3828C39.1055 37.6927 40.2083 38.2578 42.0039 39.0781C43.7266 39.8529 44.9206 40.6868 45.5859 41.5801C46.2604 42.4642 46.5977 43.5807 46.5977 44.9297ZM63.0176 40.1582C63.0176 44.0684 62.1745 46.8984 60.4883 48.6484C58.8021 50.3984 56.1042 51.2734 52.3945 51.2734C51.1732 51.2734 50.2435 51.2279 49.6055 51.1367V46.8574C50.3893 47.0033 51.1732 47.0762 51.957 47.0762C53.8893 47.0762 55.3796 46.6797 56.4277 45.8867C57.4759 45.0846 58.0456 43.8223 58.1367 42.0996H57.9727C57.6172 42.7559 57.2663 43.2298 56.9199 43.5215C56.5736 43.8132 56.1497 44.0365 55.6484 44.1914C55.1471 44.3464 54.5228 44.4238 53.7754 44.4238C52.0436 44.4238 50.6901 43.8451 49.7148 42.6875C48.7396 41.5299 48.252 39.9349 48.252 37.9023C48.252 35.6875 48.8809 33.9512 50.1387 32.6934C51.4056 31.4355 53.1374 30.8066 55.334 30.8066C57.7767 30.8066 59.668 31.6178 61.0078 33.2402C62.3477 34.8626 63.0176 37.1686 63.0176 40.1582ZM55.4844 35.127C54.8919 35.127 54.4089 35.3411 54.0352 35.7695C53.6706 36.1979 53.4883 36.8861 53.4883 37.834C53.4883 38.5814 53.6478 39.1784 53.9668 39.625C54.2858 40.0625 54.7734 40.2812 55.4297 40.2812C56.0221 40.2812 56.5371 40.0671 56.9746 39.6387C57.4121 39.2103 57.6309 38.6953 57.6309 38.0938C57.6309 37.2826 57.4258 36.5853 57.0156 36.002C56.6146 35.4186 56.1042 35.127 55.4844 35.127Z" fill="white"/>
<defs>
<linearGradient id="paint0_linear" x1="55.5" y1="4" x2="24.5" y2="76.5" gradientUnits="userSpaceOnUse">
<stop stop-color="#DDC400" stop-opacity="0.96"/>
<stop offset="0.458333" stop-color="#FFE400"/>
<stop offset="1" stop-color="#E5BA4B"/>
<stop offset="1" stop-color="#DDC400"/>
</linearGradient>
</defs>
</svg>
