<svg width="80" height="80" viewBox="0 0 80 80" fill="none" xmlns="http://www.w3.org/2000/svg">
<path d="M0 40C0 17.9086 17.9086 0 40 0C62.0914 0 80 17.9086 80 40C80 62.0914 62.0914 80 40 80C17.9086 80 0 62.0914 0 40Z" fill="url(#paint0_linear)"/>
<path d="M26.5879 57.2754C25.6035 57.2754 24.6693 57.1797 23.7852 56.9883V52.791C24.0768 52.8457 24.3867 52.9049 24.7148 52.9688C25.043 53.0417 25.3984 53.0781 25.7812 53.0781C26.6745 53.0781 27.3125 52.8092 27.6953 52.2715C28.0781 51.7337 28.2695 50.8132 28.2695 49.5098V31.0117H33.6973V49.0449C33.6973 51.752 33.1048 53.7982 31.9199 55.1836C30.735 56.5781 28.9577 57.2754 26.5879 57.2754ZM51.1016 44.9297C51.1016 46.1693 50.7871 47.2721 50.1582 48.2383C49.5293 49.1953 48.6224 49.9427 47.4375 50.4805C46.2526 51.0091 44.8626 51.2734 43.2676 51.2734C41.9368 51.2734 40.8203 51.1823 39.918 51C39.0156 50.8086 38.0768 50.4805 37.1016 50.0156V45.2031C38.1315 45.7318 39.2025 46.1465 40.3145 46.4473C41.4264 46.7389 42.4473 46.8848 43.377 46.8848C44.179 46.8848 44.7669 46.748 45.1406 46.4746C45.5143 46.1921 45.7012 45.832 45.7012 45.3945C45.7012 45.1211 45.6237 44.8841 45.4688 44.6836C45.3229 44.474 45.0814 44.2643 44.7441 44.0547C44.416 43.8451 43.5319 43.4167 42.0918 42.7695C40.7884 42.1771 39.8086 41.6029 39.1523 41.0469C38.5052 40.4909 38.0221 39.8529 37.7031 39.1328C37.3932 38.4128 37.2383 37.5605 37.2383 36.5762C37.2383 34.735 37.9082 33.2995 39.248 32.2695C40.5879 31.2396 42.429 30.7246 44.7715 30.7246C46.8405 30.7246 48.9505 31.2031 51.1016 32.1602L49.4473 36.3301C47.5788 35.4733 45.9655 35.0449 44.6074 35.0449C43.9056 35.0449 43.3952 35.168 43.0762 35.4141C42.7572 35.6602 42.5977 35.9655 42.5977 36.3301C42.5977 36.722 42.7982 37.0729 43.1992 37.3828C43.6094 37.6927 44.7122 38.2578 46.5078 39.0781C48.2305 39.8529 49.4245 40.6868 50.0898 41.5801C50.7643 42.4642 51.1016 43.5807 51.1016 44.9297Z" fill="white"/>
<defs>
<linearGradient id="paint0_linear" x1="55.5" y1="4" x2="24.5" y2="76.5" gradientUnits="userSpaceOnUse">
<stop stop-color="#DDC400" stop-opacity="0.96"/>
<stop offset="0.458333" stop-color="#FFE400"/>
<stop offset="1" stop-color="#E5BA4B"/>
<stop offset="1" stop-color="#DDC400"/>
</linearGradient>
</defs>
</svg>
