<svg width="80" height="80" viewBox="0 0 80 80" fill="none" xmlns="http://www.w3.org/2000/svg">
<path d="M0 40C0 17.9086 17.9086 0 40 0C62.0914 0 80 17.9086 80 40C80 62.0914 62.0914 80 40 80C17.9086 80 0 62.0914 0 40Z" fill="#FFE60A"/>
<path d="M11.756 42.832V40.34C12.204 40.3213 12.568 40.1907 12.848 39.948C13.1467 39.6867 13.38 39.3693 13.548 38.996C13.716 38.604 13.828 38.1933 13.884 37.764C13.9587 37.316 13.996 36.896 13.996 36.504V32.164C13.996 31.2867 14.0893 30.624 14.276 30.176C14.4627 29.7093 14.7053 29.3827 15.004 29.196C15.3213 28.9907 15.6853 28.8787 16.096 28.86C16.5253 28.8413 16.9733 28.832 17.44 28.832H19.316V31.324H18.112C17.8133 31.324 17.5613 31.3613 17.356 31.436C17.1693 31.492 17.02 31.632 16.908 31.856C16.796 32.0613 16.712 32.3507 16.656 32.724C16.6187 33.0973 16.6 33.592 16.6 34.208V37.82C16.6 38.3613 16.5347 38.8373 16.404 39.248C16.292 39.6587 16.1427 40.0133 15.956 40.312C15.7693 40.6107 15.564 40.8627 15.34 41.068C15.1347 41.2733 14.948 41.432 14.78 41.544C14.948 41.656 15.1347 41.8147 15.34 42.02C15.564 42.2253 15.7693 42.4773 15.956 42.776C16.1427 43.0747 16.292 43.4293 16.404 43.84C16.5347 44.2507 16.6 44.7173 16.6 45.24V48.824C16.6 49.44 16.6187 49.9347 16.656 50.308C16.712 50.7 16.796 50.9987 16.908 51.204C17.02 51.4093 17.1693 51.5493 17.356 51.624C17.5613 51.6987 17.8133 51.736 18.112 51.736H19.316V54.256H17.44C16.992 54.256 16.5627 54.2467 16.152 54.228C15.7413 54.2093 15.368 54.0973 15.032 53.892C14.7147 53.7053 14.4627 53.388 14.276 52.94C14.0893 52.492 13.996 51.8387 13.996 50.98V46.668C13.996 46.276 13.9587 45.8653 13.884 45.436C13.828 44.988 13.716 44.5773 13.548 44.204C13.38 43.8307 13.1467 43.5133 12.848 43.252C12.568 42.9907 12.204 42.8507 11.756 42.832ZM66.4866 40.34V42.832C66.0386 42.8507 65.6653 42.9813 65.3666 43.224C65.0866 43.4667 64.8626 43.7747 64.6946 44.148C64.5266 44.5027 64.4053 44.8947 64.3306 45.324C64.2746 45.7533 64.2466 46.164 64.2466 46.556V50.868C64.2466 51.7453 64.1533 52.4173 63.9666 52.884C63.7799 53.3507 63.5279 53.6867 63.2106 53.892C62.9119 54.0973 62.5479 54.2093 62.1186 54.228C61.7079 54.2467 61.2693 54.256 60.8026 54.256H58.9266V51.736H60.1306C60.4293 51.736 60.6719 51.6987 60.8586 51.624C61.0453 51.5493 61.1946 51.4093 61.3066 51.204C61.4186 50.9987 61.4933 50.7 61.5306 50.308C61.5866 49.9347 61.6146 49.44 61.6146 48.824V45.352C61.6146 44.792 61.6799 44.2973 61.8106 43.868C61.9413 43.4387 62.0999 43.0747 62.2866 42.776C62.4733 42.4587 62.6693 42.2067 62.8746 42.02C63.0986 41.8147 63.2946 41.656 63.4626 41.544C63.2946 41.432 63.0986 41.2733 62.8746 41.068C62.6693 40.8627 62.4733 40.6107 62.2866 40.312C62.0999 40.0133 61.9413 39.6587 61.8106 39.248C61.6799 38.8373 61.6146 38.3613 61.6146 37.82V34.208C61.6146 33.592 61.5866 33.0973 61.5306 32.724C61.4933 32.3507 61.4186 32.0613 61.3066 31.856C61.1946 31.632 61.0453 31.492 60.8586 31.436C60.6719 31.3613 60.4293 31.324 60.1306 31.324H58.9266V28.832H60.8026C61.2506 28.832 61.6799 28.8413 62.0906 28.86C62.5199 28.86 62.8933 28.9627 63.2106 29.168C63.5279 29.3547 63.7799 29.6813 63.9666 30.148C64.1533 30.596 64.2466 31.268 64.2466 32.164V36.616C64.2466 37.008 64.2746 37.428 64.3306 37.876C64.4053 38.3053 64.5266 38.7067 64.6946 39.08C64.8626 39.4347 65.0866 39.7333 65.3666 39.976C65.6653 40.2187 66.0386 40.34 66.4866 40.34Z" fill="white"/>
<path d="M25.8293 54.2V51.316C27.1359 51.2413 28.1999 50.7933 29.0213 49.972C29.8613 49.1507 30.2813 47.872 30.2813 46.136V29.7H33.3613V46.22C33.3613 47.4707 33.1746 48.5813 32.8013 49.552C32.4279 50.5227 31.9053 51.344 31.2333 52.016C30.5613 52.7067 29.7586 53.2293 28.8253 53.584C27.9106 53.9573 26.9119 54.1627 25.8293 54.2ZM49.8854 30.82L48.7934 33.312C48.0281 33.032 47.2628 32.808 46.4974 32.64C45.7508 32.472 45.0321 32.388 44.3414 32.388C43.1654 32.388 42.2228 32.6307 41.5134 33.116C40.8228 33.6013 40.4774 34.2173 40.4774 34.964C40.4774 35.5987 40.7294 36.112 41.2334 36.504C41.7374 36.8773 42.3628 37.2227 43.1094 37.54C43.8561 37.8387 44.6681 38.1467 45.5454 38.464C46.4228 38.7627 47.2348 39.1547 47.9814 39.64C48.7281 40.1253 49.3534 40.7413 49.8574 41.488C50.3614 42.216 50.6134 43.1587 50.6134 44.316C50.6134 45.212 50.4454 46.024 50.1094 46.752C49.7921 47.4613 49.3068 48.0773 48.6534 48.6C48.0188 49.1227 47.2161 49.524 46.2454 49.804C45.2934 50.084 44.1734 50.224 42.8854 50.224C42.0641 50.224 41.3174 50.168 40.6454 50.056C39.9921 49.944 39.3948 49.804 38.8534 49.636C38.3308 49.4493 37.8641 49.2533 37.4534 49.048C37.0614 48.8427 36.7254 48.656 36.4454 48.488L37.7894 45.828C38.5361 46.2573 39.3668 46.6027 40.2814 46.864C41.1961 47.1253 42.0268 47.256 42.7734 47.256C43.1468 47.256 43.6041 47.2093 44.1454 47.116C44.7054 47.0227 45.2374 46.864 45.7414 46.64C46.2454 46.3973 46.6748 46.08 47.0294 45.688C47.4028 45.296 47.5894 44.8013 47.5894 44.204C47.5894 43.6627 47.4401 43.2053 47.1414 42.832C46.8614 42.44 46.4788 42.104 45.9934 41.824C45.5268 41.5253 44.9854 41.264 44.3694 41.04C43.7721 40.7973 43.1561 40.5547 42.5214 40.312C41.8868 40.0507 41.2614 39.78 40.6454 39.5C40.0481 39.22 39.5068 38.884 39.0214 38.492C38.5548 38.0813 38.1721 37.6147 37.8734 37.092C37.5934 36.5507 37.4534 35.9067 37.4534 35.16C37.4534 34.4693 37.5934 33.788 37.8734 33.116C38.1534 32.444 38.5734 31.8467 39.1334 31.324C39.6934 30.8013 40.3841 30.3813 41.2054 30.064C42.0454 29.7467 43.0161 29.588 44.1174 29.588C44.7894 29.588 45.4428 29.644 46.0774 29.756C46.7308 29.868 47.3188 29.9987 47.8414 30.148C48.3641 30.2787 48.8028 30.4093 49.1574 30.54C49.5308 30.6707 49.7734 30.764 49.8854 30.82Z" fill="#191931"/>
</svg>
